<?xml version="1.0" encoding="UTF-8"?>
<!DOCTYPE svg PUBLIC "-//W3C//DTD SVG 1.1//EN" "http://www.w3.org/Graphics/SVG/1.1/DTD/svg11.dtd"><svg version="1.1" viewBox="0 0 12065 12065" preserveAspectRatio="xMidYMid" fill-rule="evenodd" xmlns="http://www.w3.org/2000/svg" xmlns:xlink="http://www.w3.org/1999/xlink"><g visibility="visible" id="Default"><desc>Master slide</desc><g style="stroke:none;fill:none"><rect x="0" y="0" width="12065" height="12065"/></g></g><g visibility="visible" id="page1"><desc>Slide</desc><g><desc>Drawing</desc><g><g style="stroke:none;fill:rgb(0,174,0)"><path d="M 3167,-1 C 1583,-1 -1,1583 -1,3167 L -1,8896 C -1,10480 1583,12064 3167,12064 L 8896,12064 C 10480,12064 12064,10480 12064,8896 L 12064,3167 C 12064,1583 10480,-1 8896,-1 L 3167,-1 Z M -1,-1 L -1,-1 Z M 12065,12065 L 12065,12065 Z"/></g><g style="stroke:none;fill:none"><rect x="-1" y="-1" width="12067" height="12067"/><rect x="0" y="0" width="12066" height="12066"/></g><g/></g></g><g><desc>Drawing</desc><g><g style="stroke:none;fill:rgb(230,230,230)"><path d="M 2336,5936 L 2223,5799 2120,5658 2027,5514 1944,5367 1872,5217 1811,5065 1760,4910 1721,4754 1692,4597 1675,4440 1669,4281 1674,4123 1691,3965 1718,3808 1757,3652 1806,3498 1867,3345 1938,3195 2020,3047 2112,2903 2214,2762 2326,2625 2448,2492 2579,2363 2719,2239 2868,2120 3025,2006 3189,1899 3361,1797 3540,1701 3726,1611 3918,1528 4115,1452 4318,1384 4525,1322 4736,1267 4951,1220 5169,1181 5390,1149 5612,1125 5836,1109 6061,1101 6286,1101 6511,1108 6734,1124 6957,1147 7178,1178 7396,1217 7611,1263 7823,1317 8030,1378 8233,1447 8431,1522 8623,1605 8809,1694 8989,1789 9162,1890 9327,1998 9484,2111 9634,2229 9774,2353 9906,2481 10028,2614 10141,2751 10244,2892 10337,3036 10420,3183 10492,3333 10553,3486 10604,3640 10643,3796 10672,3953 10689,4111 10695,4269 10690,4427 10673,4585 10646,4742 10607,4898 10558,5053 10497,5205 10426,5355 10344,5503 10252,5647 10149,5788 10037,5925 9916,6059 9785,6187 9645,6311 9496,6430 9339,6544 9175,6652 9002,6754 8823,6849 8638,6939 8446,7022 8248,7098 8046,7167 7839,7228 7627,7283 7412,7330 7194,7369 6974,7401 6752,7425 6528,7441 6303,7449 6078,7449 5853,7442 5629,7426 5407,7403 5186,7372 4968,7333 4753,7287 4541,7233 4334,7171 4131,7103 3933,7028 3741,6945 3554,6856 3375,6761 1285,7326 2336,5936 Z M 1669,1100 L 1669,1100 Z M 10695,7451 L 10695,7451 Z"/></g><g style="stroke:rgb(0,0,0);stroke-width:254;stroke-linejoin:round;fill:none"><path style="fill:none" d="M 2336,5936 L 2223,5799 2120,5658 2027,5514 1944,5367 1872,5217 1811,5065 1760,4910 1721,4754 1692,4597 1675,4440 1669,4281 1674,4123 1691,3965 1718,3808 1757,3652 1806,3498 1867,3345 1938,3195 2020,3047 2112,2903 2214,2762 2326,2625 2448,2492 2579,2363 2719,2239 2868,2120 3025,2006 3189,1899 3361,1797 3540,1701 3726,1611 3918,1528 4115,1452 4318,1384 4525,1322 4736,1267 4951,1220 5169,1181 5390,1149 5612,1125 5836,1109 6061,1101 6286,1101 6511,1108 6734,1124 6957,1147 7178,1178 7396,1217 7611,1263 7823,1317 8030,1378 8233,1447 8431,1522 8623,1605 8809,1694 8989,1789 9162,1890 9327,1998 9484,2111 9634,2229 9774,2353 9906,2481 10028,2614 10141,2751 10244,2892 10337,3036 10420,3183 10492,3333 10553,3486 10604,3640 10643,3796 10672,3953 10689,4111 10695,4269 10690,4427 10673,4585 10646,4742 10607,4898 10558,5053 10497,5205 10426,5355 10344,5503 10252,5647 10149,5788 10037,5925 9916,6059 9785,6187 9645,6311 9496,6430 9339,6544 9175,6652 9002,6754 8823,6849 8638,6939 8446,7022 8248,7098 8046,7167 7839,7228 7627,7283 7412,7330 7194,7369 6974,7401 6752,7425 6528,7441 6303,7449 6078,7449 5853,7442 5629,7426 5407,7403 5186,7372 4968,7333 4753,7287 4541,7233 4334,7171 4131,7103 3933,7028 3741,6945 3554,6856 3375,6761 1285,7326 2336,5936"/></g><g style="stroke:none;fill:none"><rect x="1670" y="1100" width="9026" height="6351"/></g><g/></g></g><g><desc>Drawing</desc><g><g style="stroke:none;fill:rgb(0,0,0)"><path d="M 5296,2469 C 5476,2469 5613,2606 5613,2786 5613,2966 5476,3103 5296,3103 5116,3103 4979,2966 4979,2786 4979,2606 5116,2469 5296,2469 Z M 4979,2469 L 4979,2469 Z M 5615,3105 L 5615,3105 Z"/></g><g style="stroke:rgb(0,0,0);fill:none"><path style="fill:none" d="M 5296,2469 C 5476,2469 5613,2606 5613,2786 5613,2966 5476,3103 5296,3103 5116,3103 4979,2966 4979,2786 4979,2606 5116,2469 5296,2469"/><path style="fill:none" d="M 4979,2469 L 4979,2469"/><path style="fill:none" d="M 5615,3105 L 5615,3105"/></g><g style="stroke:none;fill:none"><rect x="4980" y="2470" width="636" height="636"/></g><g/></g></g><g><desc>Drawing</desc><g><g style="stroke:none;fill:rgb(0,0,0)"><path d="M 7967,4522 L 7968,4578 7964,4633 7957,4688 7945,4744 7929,4798 7909,4852 7885,4905 7857,4958 7825,5009 7790,5059 7750,5108 7707,5156 7660,5202 7610,5247 7557,5289 7500,5330 7441,5369 7378,5406 7313,5441 7245,5474 7175,5504 7103,5532 7028,5558 6952,5581 6874,5601 6795,5619 6715,5634 6633,5647 6551,5656 6468,5663 6384,5668 6300,5669 6217,5668 6133,5663 6050,5657 5968,5647 5886,5634 5806,5619 5727,5601 5649,5581 5572,5558 5498,5533 5426,5505 5356,5474 5288,5442 5223,5407 5160,5370 5100,5331 5044,5290 4990,5247 4940,5203 4893,5157 4850,5109 4811,5060 4775,5010 4743,4958 4715,4906 4691,4853 4671,4799 4655,4744 4643,4689 4636,4634 4632,4578 4633,4523 4638,4467 4647,4412 3932,4347 3918,4426 3911,4506 3910,4585 3915,4665 3926,4744 3943,4823 3966,4901 3995,4979 4029,5055 4069,5130 4115,5204 4166,5276 4223,5346 4285,5414 4352,5480 4424,5544 4500,5605 4582,5664 4667,5720 4757,5772 4850,5822 4947,5869 5048,5913 5151,5953 5258,5989 5367,6022 5478,6051 5592,6077 5707,6098 5824,6116 5942,6130 6061,6140 6181,6146 6301,6148 6420,6146 6540,6140 6659,6130 6777,6116 6894,6098 7009,6077 7123,6051 7234,6022 7343,5989 7450,5952 7553,5912 7654,5869 7751,5822 7844,5772 7934,5719 8019,5663 8100,5604 8177,5543 8249,5479 8316,5413 8377,5345 8434,5275 8485,5203 8531,5129 8571,5054 8606,4978 8634,4901 8657,4822 8674,4744 8685,4664 8690,4585 8689,4505 9286,4491 8294,3876 7370,4535 7967,4522 Z M 3910,6148 L 3910,6148 Z M 8691,2972 L 8691,2972 Z"/></g><g style="stroke:rgb(0,0,0);fill:none"><path style="fill:none" d="M 7967,4522 L 7968,4578 7964,4633 7957,4688 7945,4744 7929,4798 7909,4852 7885,4905 7857,4958 7825,5009 7790,5059 7750,5108 7707,5156 7660,5202 7610,5247 7557,5289 7500,5330 7441,5369 7378,5406 7313,5441 7245,5474 7175,5504 7103,5532 7028,5558 6952,5581 6874,5601 6795,5619 6715,5634 6633,5647 6551,5656 6468,5663 6384,5668 6300,5669 6217,5668 6133,5663 6050,5657 5968,5647 5886,5634 5806,5619 5727,5601 5649,5581 5572,5558 5498,5533 5426,5505 5356,5474 5288,5442 5223,5407 5160,5370 5100,5331 5044,5290 4990,5247 4940,5203 4893,5157 4850,5109 4811,5060 4775,5010 4743,4958 4715,4906 4691,4853 4671,4799 4655,4744 4643,4689 4636,4634 4632,4578 4633,4523 4638,4467 4647,4412 3932,4347 3918,4426 3911,4506 3910,4585 3915,4665 3926,4744 3943,4823 3966,4901 3995,4979 4029,5055 4069,5130 4115,5204 4166,5276 4223,5346 4285,5414 4352,5480 4424,5544 4500,5605 4582,5664 4667,5720 4757,5772 4850,5822 4947,5869 5048,5913 5151,5953 5258,5989 5367,6022 5478,6051 5592,6077 5707,6098 5824,6116 5942,6130 6061,6140 6181,6146 6301,6148 6420,6146 6540,6140 6659,6130 6777,6116 6894,6098 7009,6077 7123,6051 7234,6022 7343,5989 7450,5952 7553,5912 7654,5869 7751,5822 7844,5772 7934,5719 8019,5663 8100,5604 8177,5543 8249,5479 8316,5413 8377,5345 8434,5275 8485,5203 8531,5129 8571,5054 8606,4978 8634,4901 8657,4822 8674,4744 8685,4664 8690,4585 8689,4505 9286,4491 8294,3876 7370,4535 7967,4522"/><path style="fill:none" d="M 3910,6148 L 3910,6148"/><path style="fill:none" d="M 8691,2972 L 8691,2972"/></g><g style="stroke:none;fill:none"><rect x="8690" y="6148" width="4781" height="3176"/></g><g/></g></g><g><desc>Drawing</desc><g><g style="stroke:none;fill:rgb(0,0,0)"><path d="M 2916,9895 L 2979,9954 3044,10012 3068,10030 3096,10048 3164,10092 3035,10455 2995,10427 2982,10417 2927,10374 2874,10329 2820,10281 2770,10233 2729,10193 2696,10157 2670,10130 2627,10148 2583,10165 2534,10178 2484,10187 2430,10193 2374,10196 2316,10196 2254,10193 2162,10183 2076,10164 1995,10138 1917,10104 1846,10063 1811,10040 1778,10015 1745,9987 1714,9957 1685,9926 1656,9894 1624,9852 1594,9809 1565,9765 1539,9718 1515,9670 1492,9621 1471,9568 1452,9515 1435,9458 1421,9403 1396,9283 1380,9155 1372,9022 1370,8894 1376,8773 1390,8660 1411,8555 1423,8505 1439,8458 1455,8412 1473,8369 1494,8328 1517,8289 1540,8251 1565,8215 1593,8182 1622,8151 1652,8123 1684,8097 1717,8074 1751,8052 1787,8034 1824,8017 1905,7991 1989,7976 2081,7970 2177,7974 2277,7986 2369,8008 2458,8038 2541,8076 2580,8098 2618,8123 2655,8150 2690,8178 2724,8209 2756,8242 2787,8276 2816,8314 2845,8352 2871,8394 2896,8436 2919,8479 2927,8496 2941,8525 2961,8574 2979,8623 2996,8674 3024,8783 3045,8897 3060,9020 3068,9148 3069,9263 3064,9372 3054,9476 3037,9573 3016,9662 2988,9746 2973,9782 2955,9824 2936,9860 2916,9895 Z M 2515,9527 L 2528,9489 2539,9449 2548,9403 2554,9352 2560,9297 2561,9238 2562,9174 2561,9106 2557,9027 2550,8955 2540,8888 2528,8827 2513,8770 2505,8744 2496,8720 2486,8696 2476,8675 2464,8654 2452,8635 2440,8617 2427,8600 2414,8585 2400,8569 2386,8557 2371,8543 2356,8532 2340,8521 2323,8512 2307,8504 2288,8496 2271,8491 2233,8481 2194,8475 2158,8475 2140,8476 2123,8479 2106,8482 2090,8487 2074,8494 2058,8500 2044,8508 2030,8517 2015,8528 2003,8540 1989,8552 1977,8566 1966,8581 1955,8597 1944,8614 1934,8634 1925,8654 1916,8675 1909,8698 1902,8723 1891,8775 1882,8832 1877,8895 1874,8962 1876,9034 1880,9120 1888,9198 1897,9270 1909,9335 1925,9395 1933,9422 1942,9448 1952,9471 1963,9495 1974,9517 1986,9536 1998,9554 2011,9570 2024,9587 2038,9602 2052,9616 2067,9629 2081,9640 2098,9650 2114,9660 2130,9668 2147,9676 2166,9682 2202,9691 2241,9696 2267,9698 2292,9699 2315,9696 2326,9694 2338,9691 2320,9671 2301,9649 2278,9628 2253,9606 2226,9586 2197,9565 2165,9545 2131,9524 2203,9292 2234,9301 2263,9315 2275,9319 2286,9326 2298,9333 2308,9339 2318,9347 2331,9358 2364,9385 2407,9424 2459,9474 2515,9527 Z"/></g><g style="stroke:none;fill:none"><rect x="1369" y="7970" width="1796" height="2487"/></g><g style="stroke:none;fill:rgb(0,0,0)"><path d="M 3158,8678 L 3599,8711 3826,9686 4030,8741 4121,8748 4349,8762 4440,8765 4728,9714 4883,8778 5173,8787 5320,8789 5193,9280 4941,10267 4536,10267 4389,9786 4261,9358 4161,9807 4062,10260 3655,10242 3158,8678 Z"/></g><g style="stroke:none;fill:none"><rect x="3158" y="8677" width="2164" height="1591"/></g><g style="stroke:none;fill:rgb(0,0,0)"><path d="M 5887,9271 L 5449,9211 5455,9177 5461,9145 5468,9115 5474,9085 5482,9059 5491,9034 5501,9011 5512,8990 5523,8971 5536,8951 5551,8933 5566,8916 5582,8898 5600,8883 5619,8868 5640,8853 5656,8844 5673,8834 5693,8824 5713,8817 5735,8810 5758,8803 5810,8790 5866,8782 5923,8776 5983,8773 6046,8773 6144,8777 6231,8785 6309,8795 6337,8800 6377,8809 6407,8817 6436,8827 6465,8839 6491,8853 6517,8869 6542,8886 6565,8905 6588,8926 6603,8943 6617,8960 6630,8979 6643,9000 6655,9022 6666,9046 6677,9070 6687,9097 6696,9125 6704,9151 6710,9177 6716,9204 6722,9230 6726,9256 6727,9281 6729,9306 6755,9928 6758,9975 6761,10016 6765,10053 6769,10068 6772,10084 6775,10098 6780,10114 6785,10129 6792,10147 6807,10184 6824,10225 6397,10240 6396,10238 6384,10214 6373,10192 6365,10172 6362,10163 6360,10156 6355,10139 6351,10119 6340,10066 6319,10091 6298,10115 6277,10136 6256,10157 6233,10174 6212,10190 6190,10206 6169,10218 6138,10234 6107,10246 6074,10257 6039,10266 6005,10274 5968,10279 5929,10282 5890,10285 5839,10283 5790,10279 5743,10271 5702,10258 5662,10243 5644,10234 5626,10223 5609,10211 5593,10199 5577,10185 5563,10171 5535,10141 5523,10125 5512,10108 5501,10091 5491,10073 5483,10056 5475,10037 5467,10018 5462,9998 5456,9979 5451,9958 5447,9938 5444,9916 5440,9873 5440,9832 5443,9793 5447,9756 5454,9720 5464,9687 5469,9671 5476,9656 5483,9639 5491,9626 5509,9597 5518,9584 5530,9572 5541,9558 5555,9547 5584,9524 5619,9503 5655,9484 5697,9467 5745,9451 5795,9437 6125,9351 6163,9338 6202,9322 6242,9305 6283,9285 6282,9261 6279,9239 6275,9219 6270,9200 6268,9192 6265,9183 6262,9176 6258,9168 6255,9161 6251,9155 6247,9149 6242,9145 6237,9140 6233,9135 6227,9131 6221,9127 6215,9123 6209,9120 6193,9113 6177,9110 6159,9105 6140,9104 6119,9103 6092,9104 6067,9105 6043,9107 6022,9112 6002,9117 5984,9125 5968,9134 5960,9138 5953,9144 5947,9148 5943,9153 5938,9157 5933,9163 5923,9177 5915,9193 5906,9208 5899,9228 5893,9249 5887,9271 Z M 6294,9563 L 6247,9583 6199,9600 6151,9619 6101,9635 6039,9658 6014,9669 5990,9680 5970,9691 5954,9702 5946,9707 5940,9713 5934,9719 5929,9725 5921,9735 5913,9747 5910,9753 5908,9760 5905,9766 5902,9772 5900,9778 5899,9785 5898,9792 5896,9798 5895,9805 5896,9813 5895,9826 5897,9842 5899,9858 5901,9865 5903,9872 5905,9880 5907,9886 5910,9893 5913,9899 5916,9905 5920,9911 5923,9917 5927,9922 5932,9928 5937,9933 5942,9937 5947,9942 5952,9946 5958,9951 5965,9955 5971,9956 5984,9963 5999,9968 6014,9971 6031,9971 6048,9973 6067,9971 6086,9969 6104,9966 6122,9961 6139,9955 6155,9946 6172,9937 6189,9926 6204,9914 6218,9903 6230,9889 6242,9877 6252,9863 6262,9847 6270,9832 6277,9816 6283,9799 6288,9782 6292,9763 6294,9742 6297,9721 6298,9699 6299,9675 6298,9650 6294,9563 Z"/></g><g style="stroke:none;fill:none"><rect x="5439" y="8773" width="1387" height="1513"/></g><g style="stroke:none;fill:rgb(0,0,0)"><path d="M 6931,8822 L 7089,8820 8033,8800 8046,9104 7476,9832 8112,9801 8127,10156 7147,10214 6943,10222 6929,9874 7123,9623 7469,9174 7104,9184 6945,9188 6931,8822 Z"/></g><g style="stroke:none;fill:none"><rect x="6929" y="8799" width="1199" height="1424"/></g><g style="stroke:none;fill:rgb(0,0,0)"><path d="M 9606,9489 L 9483,9504 9009,9545 8696,9567 8701,9597 8706,9624 8713,9649 8720,9673 8730,9695 8740,9713 8750,9731 8756,9738 8762,9746 8770,9756 8780,9764 8789,9773 8799,9781 8808,9786 8819,9794 8830,9799 8840,9804 8851,9808 8863,9811 8874,9813 8886,9816 8899,9817 8912,9818 8938,9817 8953,9814 8970,9812 8986,9807 9002,9803 9018,9796 9019,9795 9033,9789 9048,9779 9063,9768 9072,9761 9081,9753 9091,9744 9100,9733 9109,9722 9119,9708 9129,9694 9139,9679 9490,9682 9588,9680 9563,9730 9538,9777 9510,9821 9497,9839 9481,9860 9451,9897 9419,9929 9387,9959 9352,9986 9314,10009 9273,10030 9228,10051 9178,10068 9125,10081 9066,10095 9031,10100 9005,10105 8939,10112 8882,10117 8828,10119 8777,10119 8729,10114 8684,10108 8641,10098 8603,10088 8566,10073 8533,10056 8500,10036 8469,10013 8439,9987 8411,9959 8384,9928 8358,9892 8332,9855 8310,9815 8291,9771 8272,9727 8258,9680 8247,9632 8237,9581 8231,9529 8228,9474 8227,9397 8233,9322 8243,9253 8251,9217 8261,9185 8272,9153 8283,9121 8297,9092 8312,9062 8328,9034 8346,9006 8364,8979 8385,8954 8407,8929 8430,8907 8455,8884 8480,8865 8506,8846 8534,8829 8562,8814 8591,8801 8654,8778 8722,8761 8793,8750 8869,8745 8932,8743 8976,8744 8991,8745 9046,8748 9099,8754 9148,8762 9193,8773 9236,8788 9274,8804 9312,8825 9347,8847 9379,8872 9410,8899 9438,8928 9461,8956 9464,8960 9488,8994 9509,9030 9529,9070 9546,9113 9562,9159 9575,9207 9584,9259 9593,9315 9599,9373 9603,9434 9606,9489 Z M 9134,9296 L 9129,9261 9122,9229 9115,9200 9104,9174 9094,9149 9083,9128 9076,9119 9070,9109 9063,9101 9055,9094 9040,9081 9032,9075 9023,9068 9014,9064 9005,9059 8996,9055 8989,9052 8987,9052 8967,9046 8945,9042 8923,9040 8900,9041 8887,9041 8874,9043 8862,9045 8850,9048 8838,9052 8826,9057 8815,9063 8804,9069 8795,9075 8785,9083 8775,9091 8765,9100 8757,9110 8748,9121 8740,9132 8732,9144 8722,9160 8714,9178 8707,9199 8701,9220 8696,9244 8692,9268 8688,9295 8686,9324 8999,9306 9134,9296 Z"/></g><g style="stroke:none;fill:none"><rect x="8227" y="8743" width="1380" height="1377"/></g><g style="stroke:none;fill:rgb(0,0,0)"><path d="M 9787,8711 L 10095,8686 10212,8676 10221,8878 10234,8845 10249,8814 10263,8787 10278,8761 10293,8738 10308,8717 10324,8701 10332,8693 10340,8685 10356,8673 10373,8661 10392,8650 10411,8642 10431,8635 10453,8628 10475,8624 10499,8622 10524,8620 10551,8621 10577,8624 10605,8628 10632,8635 10662,8642 10691,8653 10720,8665 10592,9008 10572,9002 10554,8997 10536,8993 10519,8990 10504,8989 10489,8987 10476,8988 10464,8988 10454,8989 10443,8992 10433,8995 10423,8998 10413,9001 10403,9005 10394,9011 10385,9017 10378,9023 10370,9029 10362,9036 10354,9044 10348,9052 10341,9061 10334,9071 10329,9081 10321,9096 10314,9112 10306,9131 10301,9150 10292,9193 10283,9242 10277,9297 10273,9357 10273,9423 10275,9494 10291,9909 10143,9936 9839,9979 9787,8711 Z"/></g><g style="stroke:none;fill:none"><rect x="9787" y="8619" width="935" height="1361"/></g><g style="stroke:none;fill:rgb(230,230,255)"><path d="M 2840,9819 L 2903,9878 2968,9936 2992,9954 3020,9972 3088,10016 2959,10379 2919,10351 2906,10341 2851,10298 2798,10253 2744,10205 2694,10157 2653,10117 2620,10081 2594,10054 2551,10072 2507,10089 2458,10102 2408,10111 2354,10117 2298,10120 2240,10120 2178,10117 2086,10107 2000,10088 1919,10062 1841,10028 1770,9987 1735,9964 1702,9939 1669,9911 1638,9881 1609,9850 1580,9818 1548,9776 1518,9733 1489,9689 1463,9642 1439,9594 1416,9545 1395,9492 1376,9439 1359,9382 1345,9327 1320,9207 1304,9079 1296,8946 1294,8818 1300,8697 1314,8584 1335,8479 1347,8429 1363,8382 1379,8336 1397,8293 1418,8252 1441,8213 1464,8175 1489,8139 1517,8106 1546,8075 1576,8047 1608,8021 1641,7998 1675,7976 1711,7958 1748,7941 1829,7915 1913,7900 2005,7894 2101,7898 2201,7910 2293,7932 2382,7962 2465,8000 2504,8022 2542,8047 2579,8074 2614,8102 2648,8133 2680,8166 2711,8200 2740,8238 2769,8276 2795,8318 2820,8360 2843,8403 2851,8420 2865,8449 2885,8498 2903,8547 2920,8598 2948,8707 2969,8821 2984,8944 2992,9072 2993,9187 2988,9296 2978,9400 2961,9497 2940,9586 2912,9670 2897,9706 2879,9748 2860,9784 2840,9819 Z M 2439,9451 L 2452,9413 2463,9373 2472,9327 2478,9276 2484,9221 2485,9162 2486,9098 2485,9030 2481,8951 2474,8879 2464,8812 2452,8751 2437,8694 2429,8668 2420,8644 2410,8620 2400,8599 2388,8578 2376,8559 2364,8541 2351,8524 2338,8509 2324,8493 2310,8481 2295,8467 2280,8456 2264,8445 2247,8436 2231,8428 2212,8420 2195,8415 2157,8405 2118,8399 2082,8399 2064,8400 2047,8403 2030,8406 2014,8411 1998,8418 1982,8424 1968,8432 1954,8441 1939,8452 1927,8464 1913,8476 1901,8490 1890,8505 1879,8521 1868,8538 1858,8558 1849,8578 1840,8599 1833,8622 1826,8647 1815,8699 1806,8756 1801,8819 1798,8886 1800,8958 1804,9044 1812,9122 1821,9194 1833,9259 1849,9319 1857,9346 1866,9372 1876,9395 1887,9419 1898,9441 1910,9460 1922,9478 1935,9494 1948,9511 1962,9526 1976,9540 1991,9553 2005,9564 2022,9574 2038,9584 2054,9592 2071,9600 2090,9606 2126,9615 2165,9620 2191,9622 2216,9623 2239,9620 2250,9618 2262,9615 2244,9595 2225,9573 2202,9552 2177,9530 2150,9510 2121,9489 2089,9469 2055,9448 2127,9216 2158,9225 2187,9239 2199,9243 2210,9250 2222,9257 2232,9263 2242,9271 2255,9282 2288,9309 2331,9348 2383,9398 2439,9451 Z"/></g><g style="stroke:none;fill:none"><rect x="1293" y="7894" width="1796" height="2487"/></g><g style="stroke:none;fill:rgb(230,230,255)"><path d="M 3082,8602 L 3523,8635 3750,9610 3954,8665 4045,8672 4273,8686 4364,8689 4652,9638 4807,8702 5097,8711 5244,8713 5117,9204 4865,10191 4460,10191 4313,9710 4185,9282 4085,9731 3986,10184 3579,10166 3082,8602 Z"/></g><g style="stroke:none;fill:none"><rect x="3082" y="8601" width="2164" height="1591"/></g><g style="stroke:none;fill:rgb(230,230,255)"><path d="M 5811,9195 L 5373,9135 5379,9101 5385,9069 5392,9039 5398,9009 5406,8983 5415,8958 5425,8935 5436,8914 5447,8895 5460,8875 5475,8857 5490,8840 5506,8822 5524,8807 5543,8792 5564,8777 5580,8768 5597,8758 5617,8748 5637,8741 5659,8734 5682,8727 5734,8714 5790,8706 5847,8700 5907,8697 5970,8697 6068,8701 6155,8709 6233,8719 6261,8724 6301,8733 6331,8741 6360,8751 6389,8763 6415,8777 6441,8793 6466,8810 6489,8829 6512,8850 6527,8867 6541,8884 6554,8903 6567,8924 6579,8946 6590,8970 6601,8994 6611,9021 6620,9049 6628,9075 6634,9101 6640,9128 6646,9154 6650,9180 6651,9205 6653,9230 6679,9852 6682,9899 6685,9940 6689,9977 6693,9992 6696,10008 6699,10022 6704,10038 6709,10053 6716,10071 6731,10108 6748,10149 6321,10164 6320,10162 6308,10138 6297,10116 6289,10096 6286,10087 6284,10080 6279,10063 6275,10043 6264,9990 6243,10015 6222,10039 6201,10060 6180,10081 6157,10098 6136,10114 6114,10130 6093,10142 6062,10158 6031,10170 5998,10181 5963,10190 5929,10198 5892,10203 5853,10206 5814,10209 5763,10207 5714,10203 5667,10195 5626,10182 5586,10167 5568,10158 5550,10147 5533,10135 5517,10123 5501,10109 5487,10095 5459,10065 5447,10049 5436,10032 5425,10015 5415,9997 5407,9980 5399,9961 5391,9942 5386,9922 5380,9903 5375,9882 5371,9862 5368,9840 5364,9797 5364,9756 5367,9717 5371,9680 5378,9644 5388,9611 5393,9595 5400,9580 5407,9563 5415,9550 5433,9521 5442,9508 5454,9496 5465,9482 5479,9471 5508,9448 5543,9427 5579,9408 5621,9391 5669,9375 5719,9361 6049,9275 6087,9262 6126,9246 6166,9229 6207,9209 6206,9185 6203,9163 6199,9143 6194,9124 6192,9116 6189,9107 6186,9100 6182,9092 6179,9085 6175,9079 6171,9073 6166,9069 6161,9064 6157,9059 6151,9055 6145,9051 6139,9047 6133,9044 6117,9037 6101,9034 6083,9029 6064,9028 6043,9027 6016,9028 5991,9029 5967,9031 5946,9036 5926,9041 5908,9049 5892,9058 5884,9062 5877,9068 5871,9072 5867,9077 5862,9081 5857,9087 5847,9101 5839,9117 5830,9132 5823,9152 5817,9173 5811,9195 Z M 6218,9487 L 6171,9507 6123,9524 6075,9543 6025,9559 5963,9582 5938,9593 5914,9604 5894,9615 5878,9626 5870,9631 5864,9637 5858,9643 5853,9649 5845,9659 5837,9671 5834,9677 5832,9684 5829,9690 5826,9696 5824,9702 5823,9709 5822,9716 5820,9722 5819,9729 5820,9737 5819,9750 5821,9766 5823,9782 5825,9789 5827,9796 5829,9804 5831,9810 5834,9817 5837,9823 5840,9829 5844,9835 5847,9841 5851,9846 5856,9852 5861,9857 5866,9861 5871,9866 5876,9870 5882,9875 5889,9879 5895,9880 5908,9887 5923,9892 5938,9895 5955,9895 5972,9897 5991,9895 6010,9893 6028,9890 6046,9885 6063,9879 6079,9870 6096,9861 6113,9850 6128,9838 6142,9827 6154,9813 6166,9801 6176,9787 6186,9771 6194,9756 6201,9740 6207,9723 6212,9706 6216,9687 6218,9666 6221,9645 6222,9623 6223,9599 6222,9574 6218,9487 Z"/></g><g style="stroke:none;fill:none"><rect x="5363" y="8697" width="1387" height="1513"/></g><g style="stroke:none;fill:rgb(230,230,255)"><path d="M 6855,8746 L 7013,8744 7957,8724 7970,9028 7400,9756 8036,9725 8051,10080 7071,10138 6867,10146 6853,9798 7047,9547 7393,9098 7028,9108 6869,9112 6855,8746 Z"/></g><g style="stroke:none;fill:none"><rect x="6853" y="8723" width="1199" height="1424"/></g><g style="stroke:none;fill:rgb(230,230,255)"><path d="M 9530,9413 L 9407,9428 8933,9469 8620,9491 8625,9521 8630,9548 8637,9573 8644,9597 8654,9619 8664,9637 8674,9655 8680,9662 8686,9670 8694,9680 8704,9688 8713,9697 8723,9705 8732,9710 8743,9718 8754,9723 8764,9728 8775,9732 8787,9735 8798,9737 8810,9740 8823,9741 8836,9742 8862,9741 8877,9738 8894,9736 8910,9731 8926,9727 8942,9720 8943,9719 8957,9713 8972,9703 8987,9692 8996,9685 9005,9677 9015,9668 9024,9657 9033,9646 9043,9632 9053,9618 9063,9603 9414,9606 9512,9604 9487,9654 9462,9701 9434,9745 9421,9763 9405,9784 9375,9821 9343,9853 9311,9883 9276,9910 9238,9933 9197,9954 9152,9975 9102,9992 9049,10005 8990,10019 8955,10024 8929,10029 8863,10036 8806,10041 8752,10043 8701,10043 8653,10038 8608,10032 8565,10022 8527,10012 8490,9997 8457,9980 8424,9960 8393,9937 8363,9911 8335,9883 8308,9852 8282,9816 8256,9779 8234,9739 8215,9695 8196,9651 8182,9604 8171,9556 8161,9505 8155,9453 8152,9398 8151,9321 8157,9246 8167,9177 8175,9141 8185,9109 8196,9077 8207,9045 8221,9016 8236,8986 8252,8958 8270,8930 8288,8903 8309,8878 8331,8853 8354,8831 8379,8808 8404,8789 8430,8770 8458,8753 8486,8738 8515,8725 8578,8702 8646,8685 8717,8674 8793,8669 8856,8667 8900,8668 8915,8669 8970,8672 9023,8678 9072,8686 9117,8697 9160,8712 9198,8728 9236,8749 9271,8771 9303,8796 9334,8823 9362,8852 9385,8880 9388,8884 9412,8918 9433,8954 9453,8994 9470,9037 9486,9083 9499,9131 9508,9183 9517,9239 9523,9297 9527,9358 9530,9413 Z M 9058,9220 L 9053,9185 9046,9153 9039,9124 9028,9098 9018,9073 9007,9052 9000,9043 8994,9033 8987,9025 8979,9018 8964,9005 8956,8999 8947,8992 8938,8988 8929,8983 8920,8979 8913,8976 8911,8976 8891,8970 8869,8966 8847,8964 8824,8965 8811,8965 8798,8967 8786,8969 8774,8972 8762,8976 8750,8981 8739,8987 8728,8993 8719,8999 8709,9007 8699,9015 8689,9024 8681,9034 8672,9045 8664,9056 8656,9068 8646,9084 8638,9102 8631,9123 8625,9144 8620,9168 8616,9192 8612,9219 8610,9248 8923,9230 9058,9220 Z"/></g><g style="stroke:none;fill:none"><rect x="8151" y="8667" width="1380" height="1377"/></g><g style="stroke:none;fill:rgb(230,230,255)"><path d="M 9711,8635 L 10019,8610 10136,8600 10145,8802 10158,8769 10173,8738 10187,8711 10202,8685 10217,8662 10232,8641 10248,8625 10256,8617 10264,8609 10280,8597 10297,8585 10316,8574 10335,8566 10355,8559 10377,8552 10399,8548 10423,8546 10448,8544 10475,8545 10501,8548 10529,8552 10556,8559 10586,8566 10615,8577 10644,8589 10516,8932 10496,8926 10478,8921 10460,8917 10443,8914 10428,8913 10413,8911 10400,8912 10388,8912 10378,8913 10367,8916 10357,8919 10347,8922 10337,8925 10327,8929 10318,8935 10309,8941 10302,8947 10294,8953 10286,8960 10278,8968 10272,8976 10265,8985 10258,8995 10253,9005 10245,9020 10238,9036 10230,9055 10225,9074 10216,9117 10207,9166 10201,9221 10197,9281 10197,9347 10199,9418 10215,9833 10067,9860 9763,9903 9711,8635 Z"/></g><g style="stroke:none;fill:none"><rect x="9711" y="8543" width="935" height="1361"/><rect x="1257" y="7828" width="9357" height="2736"/></g><g/></g></g><g><desc>Drawing</desc><g><g style="stroke:none;fill:rgb(128,128,128)"><path d="M 8471,6279 C 9011,6279 9424,6691 9424,7231 9424,7771 9011,8184 8471,8184 7931,8184 7519,7771 7519,7231 7519,6691 7931,6279 8471,6279 Z M 8470,7014 C 8593,7014 8687,7107 8687,7230 8687,7353 8593,7447 8470,7447 8347,7447 8254,7353 8254,7230 8254,7107 8347,7014 8470,7014 Z M 7519,6279 L 7519,6279 Z M 9425,8185 L 9425,8185 Z"/></g><g style="stroke:rgb(0,0,0);stroke-width:203;stroke-linejoin:round;fill:none"><path style="fill:none" d="M 8471,6279 C 9011,6279 9424,6691 9424,7231 9424,7771 9011,8184 8471,8184 7931,8184 7519,7771 7519,7231 7519,6691 7931,6279 8471,6279"/><path style="fill:none" d="M 8470,7014 C 8593,7014 8687,7107 8687,7230 8687,7353 8593,7447 8470,7447 8347,7447 8254,7353 8254,7230 8254,7107 8347,7014 8470,7014"/></g><g style="stroke:none;fill:none"><rect x="7520" y="6280" width="1906" height="1906"/></g><g/></g></g><g><desc>Drawing</desc><g><g style="stroke:none;fill:rgb(0,0,0)"><path d="M 7301,2469 C 7481,2469 7618,2606 7618,2786 7618,2966 7481,3103 7301,3103 7121,3103 6984,2966 6984,2786 6984,2606 7121,2469 7301,2469 Z M 6984,2469 L 6984,2469 Z M 7620,3105 L 7620,3105 Z"/></g><g style="stroke:rgb(0,0,0);fill:none"><path style="fill:none" d="M 7301,2469 C 7481,2469 7618,2606 7618,2786 7618,2966 7481,3103 7301,3103 7121,3103 6984,2966 6984,2786 6984,2606 7121,2469 7301,2469"/><path style="fill:none" d="M 6984,2469 L 6984,2469"/><path style="fill:none" d="M 7620,3105 L 7620,3105"/></g><g style="stroke:none;fill:none"><rect x="6985" y="2470" width="636" height="636"/></g><g/></g></g><g><desc>Drawing</desc><g><g style="stroke:none;fill:rgb(128,128,128)"><path d="M 3926,6279 C 4466,6279 4879,6691 4879,7231 4879,7771 4466,8184 3926,8184 3386,8184 2974,7771 2974,7231 2974,6691 3386,6279 3926,6279 Z M 3925,7014 C 4048,7014 4142,7107 4142,7230 4142,7353 4048,7447 3925,7447 3802,7447 3709,7353 3709,7230 3709,7107 3802,7014 3925,7014 Z M 2974,6279 L 2974,6279 Z M 4880,8185 L 4880,8185 Z"/></g><g style="stroke:rgb(0,0,0);stroke-width:203;stroke-linejoin:round;fill:none"><path style="fill:none" d="M 3926,6279 C 4466,6279 4879,6691 4879,7231 4879,7771 4466,8184 3926,8184 3386,8184 2974,7771 2974,7231 2974,6691 3386,6279 3926,6279"/><path style="fill:none" d="M 3925,7014 C 4048,7014 4142,7107 4142,7230 4142,7353 4048,7447 3925,7447 3802,7447 3709,7353 3709,7230 3709,7107 3802,7014 3925,7014"/></g><g style="stroke:none;fill:none"><rect x="2975" y="6280" width="1906" height="1906"/></g><g/></g></g></g></svg>