<?xml version="1.0" encoding="UTF-8"?>
<!DOCTYPE svg PUBLIC "-//W3C//DTD SVG 1.1//EN" "http://www.w3.org/Graphics/SVG/1.1/DTD/svg11.dtd"><svg version="1.1" viewBox="0 0 12700 12700" preserveAspectRatio="xMidYMid" fill-rule="evenodd" xmlns="http://www.w3.org/2000/svg" xmlns:xlink="http://www.w3.org/1999/xlink"><g visibility="visible" id="Default"><desc>Master slide</desc><g style="stroke:none;fill:none"><rect x="0" y="0" width="12700" height="12700"/></g></g><g visibility="visible" id="page1"><desc>Slide</desc><g><desc>Drawing</desc><g><g style="stroke:none;fill:rgb(255,0,0)"><path d="M 6346,12129 L 804,4343 672,3894 C 639,3751 635,3596 636,3447 638,3302 657,3155 688,3012 719,2871 764,2730 821,2595 878,2459 947,2328 1026,2202 1106,2074 1198,1953 1297,1840 1398,1725 1508,1616 1626,1516 1743,1414 1870,1321 2003,1236 2136,1151 2277,1074 2422,1009 2568,942 2721,885 2875,839 3032,793 3193,757 3355,734 3519,711 3686,700 3853,701 4023,703 4194,718 4362,747 4534,776 4707,819 4873,877 5047,936 5218,1012 5379,1100 5551,1193 5718,1300 5874,1421 6041,1551 6189,1705 6347,1847 L 6820,1421 C 6965,1290 7141,1194 7314,1100 7475,1012 7789,938 7821,877 7986,819 8158,776 8332,747 8499,718 8670,703 8841,701 9006,700 9174,711 9338,734 9500,757 9661,793 9818,839 9973,884 10125,942 10271,1009 10416,1074 10557,1151 10691,1236 10822,1320 10949,1413 11069,1516 11185,1615 11295,1724 11397,1840 11495,1953 11587,2074 11667,2202 11746,2326 11816,2458 11873,2595 11929,2729 11975,2869 12006,3012 12037,3154 12055,3301 12058,3447 12061,3596 12049,3747 12022,3894 11993,4047 11934,4194 11889,4344 L 6347,12131 6346,12129 Z M 635,700 L 635,700 Z M 12066,12131 L 12066,12131 Z"/></g><g style="stroke:rgb(0,0,0);stroke-width:203;stroke-linejoin:round;fill:none"><path style="fill:none" d="M 6346,12129 L 804,4343 672,3894 C 639,3751 635,3596 636,3447 638,3302 657,3155 688,3012 719,2871 764,2730 821,2595 878,2459 947,2328 1026,2202 1106,2074 1198,1953 1297,1840 1398,1725 1508,1616 1626,1516 1743,1414 1870,1321 2003,1236 2136,1151 2277,1074 2422,1009 2568,942 2721,885 2875,839 3032,793 3193,757 3355,734 3519,711 3686,700 3853,701 4023,703 4194,718 4362,747 4534,776 4707,819 4873,877 5047,936 5218,1012 5379,1100 5551,1193 5718,1300 5874,1421 6041,1551 6189,1705 6347,1847 L 6820,1421 C 6965,1290 7141,1194 7314,1100 7475,1012 7789,938 7821,877 7986,819 8158,776 8332,747 8499,718 8670,703 8841,701 9006,700 9174,711 9338,734 9500,757 9661,793 9818,839 9973,884 10125,942 10271,1009 10416,1074 10557,1151 10691,1236 10822,1320 10949,1413 11069,1516 11185,1615 11295,1724 11397,1840 11495,1953 11587,2074 11667,2202 11746,2326 11816,2458 11873,2595 11929,2729 11975,2869 12006,3012 12037,3154 12055,3301 12058,3447 12061,3596 12049,3747 12022,3894 11993,4047 11934,4194 11889,4344 L 6347,12131 6346,12129"/></g><g style="stroke:none;fill:none"><rect x="635" y="700" width="11431" height="11431"/></g><g/></g></g><g><desc>Drawing</desc><g><g style="stroke:none;fill:rgb(230,230,255)"><path d="M 2674,5681 L 2674,4529 2674,4529 5164,4529 5164,2039 5164,2039 6316,2039 7469,2039 7469,2039 7469,4529 9959,4529 9959,4529 9959,5681 9959,6834 9959,6834 7469,6834 7469,9324 7469,9324 6316,9324 5164,9324 5164,9324 5164,6834 2674,6834 2674,6834 2674,5681 Z M 2674,2039 L 2674,2039 Z M 9960,9325 L 9960,9325 Z"/></g><g style="stroke:rgb(0,0,0);stroke-width:203;stroke-linejoin:round;fill:none"><path style="fill:none" d="M 2674,5681 L 2674,4529 2674,4529 5164,4529 5164,2039 5164,2039 6316,2039 7469,2039 7469,2039 7469,4529 9959,4529 9959,4529 9959,5681 9959,6834 9959,6834 7469,6834 7469,9324 7469,9324 6316,9324 5164,9324 5164,9324 5164,6834 2674,6834 2674,6834 2674,5681"/></g><g style="stroke:none;fill:none"><rect x="2675" y="2040" width="7286" height="7286"/></g><g/></g></g></g></svg>