<?xml version="1.0" encoding="UTF-8"?>
<!DOCTYPE svg PUBLIC "-//W3C//DTD SVG 1.1//EN" "http://www.w3.org/Graphics/SVG/1.1/DTD/svg11.dtd"><svg version="1.1" viewBox="0 0 12700 12700" preserveAspectRatio="xMidYMid" fill-rule="evenodd" xmlns="http://www.w3.org/2000/svg" xmlns:xlink="http://www.w3.org/1999/xlink"><g visibility="visible" id="Default"><desc>Master slide</desc><g style="stroke:none;fill:none"><rect x="0" y="0" width="12700" height="12700"/></g></g><g visibility="visible" id="page1"><desc>Slide</desc><g><desc>Drawing</desc><g><g style="stroke:none;fill:rgb(204,204,204)"><path d="M 6349,4170 L 4076,4170 4076,1905 534,6350 4076,10795 4076,8530 6349,8530 6349,4170 Z M 534,1905 L 534,1905 Z M 6350,10796 L 6350,10796 Z"/></g><g style="stroke:rgb(0,0,0);stroke-width:203;stroke-linejoin:round;fill:none"><path style="fill:none" d="M 6349,4170 L 4076,4170 4076,1905 534,6350 4076,10795 4076,8530 6349,8530 6349,4170"/></g><g style="stroke:none;fill:none"><rect x="535" y="1905" width="5816" height="8891"/></g><g/></g></g><g><desc>Drawing</desc><g><g style="stroke:none;fill:rgb(204,204,204)"><path d="M 7595,8589 L 6960,8589 6960,4144 8230,4144 8230,8589 7595,8589 Z"/></g><g style="stroke:rgb(0,0,0);stroke-width:203;stroke-linejoin:round;fill:none"><path style="fill:none" d="M 7595,8589 L 6960,8589 6960,4144 8230,4144 8230,8589 7595,8589"/></g><g style="stroke:none;fill:none"><rect x="6960" y="4145" width="1271" height="4446"/></g><g/></g></g><g><desc>Drawing</desc><g><g style="stroke:none;fill:rgb(204,204,204)"><path d="M 9495,8590 L 8860,8590 8860,4145 10130,4145 10130,8590 9495,8590 Z"/></g><g style="stroke:rgb(0,0,0);stroke-width:203;stroke-linejoin:round;fill:none"><path style="fill:none" d="M 9495,8590 L 8860,8590 8860,4145 10130,4145 10130,8590 9495,8590"/></g><g style="stroke:none;fill:none"><rect x="8860" y="4146" width="1271" height="4446"/></g><g/></g></g><g><desc>Drawing</desc><g><g style="stroke:none;fill:rgb(204,204,204)"><path d="M 11395,8591 L 10760,8591 10760,4146 12030,4146 12030,8591 11395,8591 Z"/></g><g style="stroke:rgb(0,0,0);stroke-width:203;stroke-linejoin:round;fill:none"><path style="fill:none" d="M 11395,8591 L 10760,8591 10760,4146 12030,4146 12030,8591 11395,8591"/></g><g style="stroke:none;fill:none"><rect x="10760" y="4147" width="1271" height="4446"/></g><g/></g></g></g></svg>