<?xml version="1.0" encoding="UTF-8"?>
<!DOCTYPE svg PUBLIC "-//W3C//DTD SVG 1.1//EN" "http://www.w3.org/Graphics/SVG/1.1/DTD/svg11.dtd"><svg version="1.1" viewBox="0 0 12700 12700" preserveAspectRatio="xMidYMid" fill-rule="evenodd" xmlns="http://www.w3.org/2000/svg" xmlns:xlink="http://www.w3.org/1999/xlink"><g visibility="visible" id="Default"><desc>Master slide</desc><g style="stroke:none;fill:none"><rect x="0" y="0" width="12700" height="12700"/></g></g><g visibility="visible" id="page1"><desc>Slide</desc><g><desc>Drawing</desc><g><g style="stroke:none;fill:rgb(255,255,102)"><path d="M 6348,635 L 5015,5004 635,5004 4192,7729 2856,12065 6348,9409 9843,12065 8508,7729 12065,5004 7684,5004 6348,635 6348,635 Z M 635,635 L 635,635 Z M 12066,12066 L 12066,12066 Z"/></g><g style="stroke:rgb(0,0,0);stroke-width:203;stroke-linejoin:round;fill:none"><path style="fill:none" d="M 6348,635 L 5015,5004 635,5004 4192,7729 2856,12065 6348,9409 9843,12065 8508,7729 12065,5004 7684,5004 6348,635 6348,635"/></g><g style="stroke:none;fill:none"><rect x="635" y="635" width="11431" height="11431"/></g><g/></g></g></g></svg>