<?xml version="1.0" encoding="UTF-8"?>
<!DOCTYPE svg PUBLIC "-//W3C//DTD SVG 1.1//EN" "http://www.w3.org/Graphics/SVG/1.1/DTD/svg11.dtd"><svg version="1.1" viewBox="0 0 12700 12700" preserveAspectRatio="xMidYMid" fill-rule="evenodd" xmlns="http://www.w3.org/2000/svg" xmlns:xlink="http://www.w3.org/1999/xlink"><g visibility="visible" id="Default"><desc>Master slide</desc><g style="stroke:none;fill:none"><rect x="0" y="0" width="12700" height="12700"/></g></g><g visibility="visible" id="page1"><desc>Slide</desc><g><desc>Drawing</desc><g><g style="stroke:none;fill:rgb(230,230,255)"><path d="M 4761,635 C 6021,635 6984,1735 6984,3175 6984,4615 6021,5715 4761,5715 3501,5715 2539,4615 2539,3175 2539,1735 3501,635 4761,635 Z M 2539,635 L 2539,635 Z M 6985,5716 L 6985,5716 Z"/></g><g style="stroke:rgb(0,0,0);fill:none"><path style="fill:none" d="M 4761,635 C 6021,635 6984,1735 6984,3175 6984,4615 6021,5715 4761,5715 3501,5715 2539,4615 2539,3175 2539,1735 3501,635 4761,635"/><path style="fill:none" d="M 2539,635 L 2539,635"/><path style="fill:none" d="M 6985,5716 L 6985,5716"/></g><g style="stroke:none;fill:none"><rect x="2540" y="635" width="4446" height="5081"/></g><g/></g></g><g><desc>Drawing</desc><g><g style="stroke:none;fill:rgb(153,153,153)"><path d="M 4656,299 C 6219,299 7413,1493 7413,3056 7413,4619 6219,5813 4656,5813 3093,5813 1899,4619 1899,3056 1899,1493 3093,299 4656,299 Z M 4655,1259 C 5673,1259 6451,2037 6451,3055 6451,4073 5673,4851 4655,4851 3637,4851 2859,4073 2859,3055 2859,2037 3637,1259 4655,1259 Z M 1899,299 L 1899,299 Z M 7415,5815 L 7415,5815 Z"/></g><g style="stroke:rgb(0,0,0);stroke-width:203;stroke-linejoin:round;fill:none"><path style="fill:none" d="M 4656,299 C 6219,299 7413,1493 7413,3056 7413,4619 6219,5813 4656,5813 3093,5813 1899,4619 1899,3056 1899,1493 3093,299 4656,299"/><path style="fill:none" d="M 4655,1259 C 5673,1259 6451,2037 6451,3055 6451,4073 5673,4851 4655,4851 3637,4851 2859,4073 2859,3055 2859,2037 3637,1259 4655,1259"/></g><g style="stroke:none;fill:none"><rect x="1900" y="300" width="5516" height="5516"/></g><g/></g></g><g><desc>Drawing</desc><g><g style="stroke:none;fill:rgb(153,204,255)"><path d="M 4675,1805 C 5026,2008 5377,2402 5377,3075 5377,3748 5026,4142 4675,4346 5372,4346 5945,3773 5945,3075 5945,2377 5372,1805 4675,1805 L 4675,1805 Z M 5945,1805 L 5945,1805 Z M 4674,4346 L 4674,4346 Z"/></g><g style="stroke:rgb(0,0,0);stroke-width:203;stroke-linejoin:round;fill:none"><path style="fill:none" d="M 4675,1805 C 5026,2008 5377,2402 5377,3075 5377,3748 5026,4142 4675,4346 5372,4346 5945,3773 5945,3075 5945,2377 5372,1805 4675,1805 L 4675,1805"/></g><g style="stroke:none;fill:none"><rect x="4675" y="1805" width="1271" height="2541"/></g><g/></g></g><g><desc>Drawing</desc><g><g style="stroke:none;fill:rgb(76,76,76)"><path d="M 5905,5668 C 5809,5723 5769,5873 5824,5968 L 9449,12246 C 9504,12341 9654,12382 9749,12327 L 10512,11886 C 10607,11831 10648,11680 10593,11585 L 6969,5307 C 6914,5212 6763,5172 6668,5227 L 5905,5668 Z M 5714,5778 L 5714,5778 Z M 10704,11776 L 10704,11776 Z"/></g><g style="stroke:rgb(0,0,0);stroke-width:203;stroke-linejoin:round;fill:none"><path style="fill:none" d="M 5905,5668 C 5809,5723 5769,5873 5824,5968 L 9449,12246 C 9504,12341 9654,12382 9749,12327 L 10512,11886 C 10607,11831 10648,11680 10593,11585 L 6969,5307 C 6914,5212 6763,5172 6668,5227 L 5905,5668"/></g><g style="stroke:none;fill:none"><rect x="5715" y="5778" width="1322" height="7690"/></g><g/></g></g></g></svg>