<?xml version="1.0" encoding="UTF-8"?>
<!DOCTYPE svg PUBLIC "-//W3C//DTD SVG 1.1//EN" "http://www.w3.org/Graphics/SVG/1.1/DTD/svg11.dtd"><svg version="1.1" viewBox="0 0 12700 12700" preserveAspectRatio="xMidYMid" fill-rule="evenodd" xmlns="http://www.w3.org/2000/svg" xmlns:xlink="http://www.w3.org/1999/xlink"><g visibility="visible" id="Default"><desc>Master slide</desc><g style="stroke:none;fill:none"><rect x="0" y="0" width="12700" height="12700"/></g></g><g visibility="visible" id="page1"><desc>Slide</desc><g><desc>Drawing</desc><g><g style="stroke:none;fill:rgb(126,0,33)"><path d="M 10895,1305 C 10548,1305 10260,1397 10260,1508 L 10260,11262 C 10260,11373 10548,11465 10895,11465 11242,11465 11531,11373 11531,11262 L 11531,1508 C 11531,1397 11242,1305 10895,1305 L 10895,1305 Z M 10260,1305 L 10260,1305 Z M 11531,11466 L 11531,11466 Z"/></g><g style="stroke:rgb(0,0,0);fill:none"><path style="fill:none" d="M 10895,1305 C 10548,1305 10260,1397 10260,1508 L 10260,11262 C 10260,11373 10548,11465 10895,11465 11242,11465 11531,11373 11531,11262 L 11531,1508 C 11531,1397 11242,1305 10895,1305"/><path style="fill:none" d="M 10260,1305 L 10260,1305"/><path style="fill:none" d="M 11531,11466 L 11531,11466"/></g><g style="stroke:none;fill:rgb(178,71,99)"><path d="M 10895,1305 C 10548,1305 10260,1397 10260,1508 10260,1619 10548,1711 10895,1711 11242,1711 11531,1619 11531,1508 11531,1397 11242,1305 10895,1305 L 10895,1305 Z M 10260,1305 L 10260,1305 Z M 11531,11466 L 11531,11466 Z"/></g><g style="stroke:rgb(0,0,0);fill:none"><path style="fill:none" d="M 10895,1305 C 10548,1305 10260,1397 10260,1508 10260,1619 10548,1711 10895,1711 11242,1711 11531,1619 11531,1508 11531,1397 11242,1305 10895,1305"/><path style="fill:none" d="M 10260,1305 L 10260,1305"/><path style="fill:none" d="M 11531,11466 L 11531,11466"/></g><g style="stroke:none;fill:none"><rect x="10260" y="1305" width="1271" height="10161"/></g><g/></g></g><g><desc>Drawing</desc><g><g style="stroke:none;fill:rgb(153,204,255)"><path d="M 10260,2251 C 10260,1778 8965,1305 7670,1305 6375,1305 5080,1778 5080,2251 L 5080,6986 C 5080,6512 6375,6039 7670,6039 8965,6039 10260,6512 10260,6986 L 10260,2251 Z M 5080,1305 L 5080,1305 Z M 10261,6986 L 10261,6986 Z"/></g><g style="stroke:rgb(0,0,0);fill:none"><path style="fill:none" d="M 10260,2251 C 10260,1778 8965,1305 7670,1305 6375,1305 5080,1778 5080,2251 L 5080,6986 C 5080,6512 6375,6039 7670,6039 8965,6039 10260,6512 10260,6986 L 10260,2251"/><path style="fill:none" d="M 5080,1305 L 5080,1305"/><path style="fill:none" d="M 10261,6986 L 10261,6986"/></g><g style="stroke:none;fill:none"><rect x="5080" y="6985" width="5681" height="5181"/></g><g/></g></g><g><desc>Drawing</desc><g><g style="stroke:none;fill:rgb(153,204,255)"><path d="M 5081,6857 C 5081,7289 4103,7720 3125,7720 2147,7720 1170,7289 1170,6857 L 1170,2540 C 1170,2972 2147,3403 3125,3403 4103,3403 5081,2972 5081,2540 L 5081,6857 Z M 1170,7720 L 1170,7720 Z M 5081,2539 L 5081,2539 Z"/></g><g style="stroke:rgb(0,0,0);fill:none"><path style="fill:none" d="M 5081,6857 C 5081,7289 4103,7720 3125,7720 2147,7720 1170,7289 1170,6857 L 1170,2540 C 1170,2972 2147,3403 3125,3403 4103,3403 5081,2972 5081,2540 L 5081,6857"/><path style="fill:none" d="M 1170,7720 L 1170,7720"/><path style="fill:none" d="M 5081,2539 L 5081,2539"/></g><g style="stroke:none;fill:none"><rect x="1170" y="7720" width="5181" height="3911"/></g><g/></g></g><g><desc>Drawing</desc><g><g style="stroke:none;fill:rgb(201,0,22)"><path d="M 3485,3848 L 3311,4327 4896,4904 4319,6490 4831,6676 5408,5091 6994,5668 7168,5188 5583,4611 6160,3026 5648,2840 5071,4425 3485,3848 3485,3848 Z M 4062,2263 L 4062,2263 Z M 6417,7254 L 6417,7254 Z"/></g><g style="stroke:rgb(0,0,0);fill:none"><path style="fill:none" d="M 3485,3848 L 3311,4327 4896,4904 4319,6490 4831,6676 5408,5091 6994,5668 7168,5188 5583,4611 6160,3026 5648,2840 5071,4425 3485,3848 3485,3848"/><path style="fill:none" d="M 4062,2263 L 4062,2263"/><path style="fill:none" d="M 6417,7254 L 6417,7254"/></g><g style="stroke:none;fill:none"><rect x="2735" y="5913" width="3885" height="3920"/></g><g/></g></g><g><desc>Drawing</desc><g><g style="stroke:rgb(0,0,0);fill:none"><path style="fill:none" d="M 5080,2540 L 5080,6985"/></g><g/></g></g></g></svg>