<?xml version="1.0" encoding="UTF-8"?>
<!DOCTYPE svg PUBLIC "-//W3C//DTD SVG 1.1//EN" "http://www.w3.org/Graphics/SVG/1.1/DTD/svg11.dtd"><svg version="1.1" viewBox="0 0 12700 12700" preserveAspectRatio="xMidYMid" fill-rule="evenodd" xmlns="http://www.w3.org/2000/svg" xmlns:xlink="http://www.w3.org/1999/xlink"><g visibility="visible" id="Default"><desc>Master slide</desc><g style="stroke:none;fill:none"><rect x="0" y="0" width="12700" height="12700"/></g></g><g visibility="visible" id="page1"><desc>Slide</desc><g><desc>Drawing</desc><g><g style="stroke:none;fill:rgb(102,102,102)"><path d="M 8003,9205 C 7934,9205 7865,9274 7865,9343 L 7865,11556 C 7865,11625 7934,11694 8003,11694 L 8556,11694 C 8625,11694 8694,11625 8694,11556 L 8694,9343 C 8694,9274 8625,9205 8556,9205 L 8003,9205 Z M 7865,9205 L 7865,9205 Z M 8695,11695 L 8695,11695 Z"/></g><g style="stroke:rgb(0,0,0);stroke-width:203;stroke-linejoin:round;fill:none"><path style="fill:none" d="M 8003,9205 C 7934,9205 7865,9274 7865,9343 L 7865,11556 C 7865,11625 7934,11694 8003,11694 L 8556,11694 C 8625,11694 8694,11625 8694,11556 L 8694,9343 C 8694,9274 8625,9205 8556,9205 L 8003,9205"/></g><g style="stroke:none;fill:none"><rect x="7866" y="9206" width="830" height="2490"/></g><g/></g></g><g><desc>Drawing</desc><g><g style="stroke:none;fill:rgb(102,102,102)"><path d="M 1364,9205 C 1295,9205 1226,9274 1226,9343 L 1226,11556 C 1226,11625 1295,11694 1364,11694 L 1917,11694 C 1986,11694 2055,11625 2055,11556 L 2055,9343 C 2055,9274 1986,9205 1917,9205 L 1364,9205 Z M 1226,9205 L 1226,9205 Z M 2056,11695 L 2056,11695 Z"/></g><g style="stroke:rgb(0,0,0);stroke-width:203;stroke-linejoin:round;fill:none"><path style="fill:none" d="M 1364,9205 C 1295,9205 1226,9274 1226,9343 L 1226,11556 C 1226,11625 1295,11694 1364,11694 L 1917,11694 C 1986,11694 2055,11625 2055,11556 L 2055,9343 C 2055,9274 1986,9205 1917,9205 L 1364,9205"/></g><g style="stroke:none;fill:none"><rect x="1227" y="9206" width="830" height="2490"/></g><g/></g></g><g><desc>Drawing</desc><g><g style="stroke:none;fill:rgb(230,230,255)"><path d="M 8695,7545 L 1226,7545 2193,5055 7729,5055 8695,7545 Z M 8695,7545 L 8695,7545 Z M 1226,5055 L 1226,5055 Z"/></g><g style="stroke:rgb(0,0,0);stroke-width:203;stroke-linejoin:round;fill:none"><path style="fill:none" d="M 8695,7545 L 1226,7545 2193,5055 7729,5055 8695,7545"/></g><g style="stroke:none;fill:none"><rect x="8695" y="7545" width="7469" height="2490"/></g><g/></g></g><g><desc>Drawing</desc><g><g style="stroke:none;fill:rgb(0,0,0)"><path d="M 6903,6454 C 7373,6454 7732,6813 7732,7283 7732,7753 7373,8113 6903,8113 6433,8113 6074,7753 6074,7283 6074,6813 6433,6454 6903,6454 Z M 6902,6682 C 7242,6682 7502,6942 7502,7282 7502,7622 7242,7883 6902,7883 6562,7883 6302,7622 6302,7282 6302,6942 6562,6682 6902,6682 Z M 6074,6454 L 6074,6454 Z M 7734,8115 L 7734,8115 Z"/></g><g style="stroke:rgb(0,0,0);stroke-width:203;stroke-linejoin:round;fill:none"><path style="fill:none" d="M 6903,6454 C 7373,6454 7732,6813 7732,7283 7732,7753 7373,8113 6903,8113 6433,8113 6074,7753 6074,7283 6074,6813 6433,6454 6903,6454"/><path style="fill:none" d="M 6902,6682 C 7242,6682 7502,6942 7502,7282 7502,7622 7242,7883 6902,7883 6562,7883 6302,7622 6302,7282 6302,6942 6562,6682 6902,6682"/></g><g style="stroke:none;fill:none"><rect x="6075" y="6454" width="1660" height="1661"/></g><g/></g></g><g><desc>Drawing</desc><g><g style="stroke:none;fill:rgb(153,153,153)"><path d="M 9525,10036 L 396,10036 866,7544 9056,7544 9525,10036 Z M 9525,10036 L 9525,10036 Z M 396,7544 L 396,7544 Z"/></g><g style="stroke:rgb(0,0,0);stroke-width:203;stroke-linejoin:round;fill:none"><path style="fill:none" d="M 9525,10036 L 396,10036 866,7544 9056,7544 9525,10036"/></g><g style="stroke:none;fill:none"><rect x="9525" y="10036" width="9129" height="2492"/></g><g/></g></g><g><desc>Drawing</desc><g><g style="stroke:none;fill:rgb(76,76,76)"><path d="M 535,8945 C 466,8945 397,9014 397,9083 L 397,9635 C 397,9704 466,9774 535,9774 L 9387,9774 C 9456,9774 9526,9704 9526,9635 L 9526,9083 C 9526,9014 9456,8945 9387,8945 L 535,8945 Z M 397,8945 L 397,8945 Z M 9526,9774 L 9526,9774 Z"/></g><g style="stroke:rgb(0,0,0);stroke-width:203;stroke-linejoin:round;fill:none"><path style="fill:none" d="M 535,8945 C 466,8945 397,9014 397,9083 L 397,9635 C 397,9704 466,9774 535,9774 L 9387,9774 C 9456,9774 9526,9704 9526,9635 L 9526,9083 C 9526,9014 9456,8945 9387,8945 L 535,8945"/></g><g style="stroke:none;fill:none"><rect x="397" y="8945" width="9129" height="829"/></g><g/></g></g><g><desc>Drawing</desc><g><g style="stroke:none;fill:rgb(0,0,0)"><path d="M 5080,5714 L 4445,5714 4445,5079 5715,5079 5715,5714 5080,5714 Z"/></g><g style="stroke:rgb(0,0,0);fill:none"><path style="fill:none" d="M 5080,5714 L 4445,5714 4445,5079 5715,5079 5715,5714 5080,5714"/></g><g style="stroke:none;fill:none"><rect x="4445" y="5080" width="1271" height="636"/></g><g/></g></g><g><desc>Drawing</desc><g><g style="stroke:none;fill:rgb(230,230,255)"><path d="M 4997,9624 L 4044,9624 4044,8989 5949,8989 5949,9624 4997,9624 Z"/></g><g style="stroke:rgb(0,0,0);stroke-width:203;stroke-linejoin:round;fill:none"><path style="fill:none" d="M 4997,9624 L 4044,9624 4044,8989 5949,8989 5949,9624 4997,9624"/></g><g style="stroke:none;fill:none"><rect x="4045" y="8990" width="1906" height="636"/></g><g/></g></g><g><desc>Drawing</desc><g><g style="stroke:none;fill:rgb(179,179,0)"><path d="M 10210,6349 L 8255,6349 8255,3074 12165,3074 12165,6349 10210,6349 Z"/></g><g style="stroke:rgb(0,0,0);stroke-width:203;stroke-linejoin:round;fill:none"><path style="fill:none" d="M 10210,6349 L 8255,6349 8255,3074 12165,3074 12165,6349 10210,6349"/></g><g style="stroke:none;fill:none"><rect x="8255" y="3075" width="3911" height="3276"/></g><g/></g></g><g><desc>Drawing</desc><g><g style="stroke:none;fill:rgb(179,179,0)"><path d="M 12164,3044 L 12164,2917 12160,2790 12150,2664 12136,2539 12117,2414 12093,2292 12064,2170 12031,2051 11993,1934 11951,1820 11905,1708 11854,1600 11799,1495 11740,1394 11677,1297 11611,1204 11541,1115 11468,1031 11392,952 11313,878 11231,809 11146,745 11059,687 10970,635 10880,589 10787,548 10693,514 10598,486 10502,463 10405,448 10308,438 10210,435 10112,438 10015,448 9918,463 9822,486 9727,514 9633,548 9540,589 9450,635 9361,687 9274,745 9189,809 9107,878 9028,952 8952,1031 8879,1115 8809,1204 8743,1297 8680,1394 8621,1495 8566,1600 8515,1708 8469,1820 8427,1934 8389,2051 8356,2170 8327,2292 8303,2414 8284,2539 8270,2664 8260,2790 8256,2917 8256,3044 8984,3018 8984,2939 8987,2859 8993,2780 9002,2701 9014,2623 9029,2546 9047,2470 9068,2395 9092,2322 9118,2250 9147,2181 9179,2113 9214,2047 9251,1983 9290,1922 9331,1864 9375,1808 9421,1756 9469,1706 9519,1660 9570,1616 9623,1577 9677,1540 9733,1507 9790,1478 9848,1453 9907,1431 9967,1414 10027,1400 10088,1390 10149,1384 10210,1382 10271,1384 10332,1390 10393,1400 10453,1414 10513,1431 10572,1453 10630,1478 10687,1507 10743,1540 10797,1577 10850,1616 10901,1660 10951,1706 10999,1756 11045,1808 11089,1864 11130,1922 11169,1983 11206,2047 11241,2113 11273,2181 11302,2250 11328,2322 11352,2395 11373,2470 11391,2546 11406,2623 11418,2701 11427,2780 11433,2859 11436,2939 11436,3018 12164,3044 Z M 8255,435 L 8255,435 Z M 12166,5516 L 12166,5516 Z"/></g><g style="stroke:rgb(0,0,0);stroke-width:203;stroke-linejoin:round;fill:none"><path style="fill:none" d="M 12164,3044 L 12164,2917 12160,2790 12150,2664 12136,2539 12117,2414 12093,2292 12064,2170 12031,2051 11993,1934 11951,1820 11905,1708 11854,1600 11799,1495 11740,1394 11677,1297 11611,1204 11541,1115 11468,1031 11392,952 11313,878 11231,809 11146,745 11059,687 10970,635 10880,589 10787,548 10693,514 10598,486 10502,463 10405,448 10308,438 10210,435 10112,438 10015,448 9918,463 9822,486 9727,514 9633,548 9540,589 9450,635 9361,687 9274,745 9189,809 9107,878 9028,952 8952,1031 8879,1115 8809,1204 8743,1297 8680,1394 8621,1495 8566,1600 8515,1708 8469,1820 8427,1934 8389,2051 8356,2170 8327,2292 8303,2414 8284,2539 8270,2664 8260,2790 8256,2917 8256,3044 8984,3018 8984,2939 8987,2859 8993,2780 9002,2701 9014,2623 9029,2546 9047,2470 9068,2395 9092,2322 9118,2250 9147,2181 9179,2113 9214,2047 9251,1983 9290,1922 9331,1864 9375,1808 9421,1756 9469,1706 9519,1660 9570,1616 9623,1577 9677,1540 9733,1507 9790,1478 9848,1453 9907,1431 9967,1414 10027,1400 10088,1390 10149,1384 10210,1382 10271,1384 10332,1390 10393,1400 10453,1414 10513,1431 10572,1453 10630,1478 10687,1507 10743,1540 10797,1577 10850,1616 10901,1660 10951,1706 10999,1756 11045,1808 11089,1864 11130,1922 11169,1983 11206,2047 11241,2113 11273,2181 11302,2250 11328,2322 11352,2395 11373,2470 11391,2546 11406,2623 11418,2701 11427,2780 11433,2859 11436,2939 11436,3018 12164,3044"/></g><g style="stroke:none;fill:none"><rect x="8255" y="435" width="3911" height="5081"/></g><g/></g></g></g></svg>