<?xml version="1.0" encoding="UTF-8"?>
<!DOCTYPE svg PUBLIC "-//W3C//DTD SVG 1.1//EN" "http://www.w3.org/Graphics/SVG/1.1/DTD/svg11.dtd"><svg version="1.1" viewBox="0 0 12700 12700" preserveAspectRatio="xMidYMid" fill-rule="evenodd" xmlns="http://www.w3.org/2000/svg" xmlns:xlink="http://www.w3.org/1999/xlink"><g visibility="visible" id="Default"><desc>Master slide</desc><g style="stroke:none;fill:none"><rect x="0" y="0" width="12700" height="12700"/></g></g><g visibility="visible" id="page1"><desc>Slide</desc><g><desc>Drawing</desc><g><g style="stroke:none;fill:rgb(179,179,179)"><path d="M 6366,4144 C 9786,4144 12398,5106 12398,6366 12398,7626 9786,8589 6366,8589 2946,8589 334,7626 334,6366 334,5106 2946,4144 6366,4144 Z M 334,4144 L 334,4144 Z M 12400,8590 L 12400,8590 Z"/></g><g style="stroke:rgb(0,0,0);stroke-width:203;stroke-linejoin:round;fill:none"><path style="fill:none" d="M 6366,4144 C 9786,4144 12398,5106 12398,6366 12398,7626 9786,8589 6366,8589 2946,8589 334,7626 334,6366 334,5106 2946,4144 6366,4144"/></g><g style="stroke:none;fill:none"><rect x="335" y="4145" width="12066" height="4446"/></g><g/></g></g><g><desc>Drawing</desc><g><g style="stroke:none;fill:rgb(76,76,76)"><path d="M 6254,4144 C 7451,4144 8366,5106 8366,6366 8366,7626 7451,8589 6254,8589 5057,8589 4143,7626 4143,6366 4143,5106 5057,4144 6254,4144 Z M 4143,4144 L 4143,4144 Z M 8367,8590 L 8367,8590 Z"/></g><g style="stroke:rgb(0,0,0);stroke-width:203;stroke-linejoin:round;fill:none"><path style="fill:none" d="M 6254,4144 C 7451,4144 8366,5106 8366,6366 8366,7626 7451,8589 6254,8589 5057,8589 4143,7626 4143,6366 4143,5106 5057,4144 6254,4144"/></g><g style="stroke:none;fill:none"><rect x="4144" y="4145" width="4224" height="4446"/></g><g/></g></g><g><desc>Drawing</desc><g><g style="stroke:none;fill:rgb(255,255,255)"><path d="M 6347,4644 C 6674,4999 7000,5464 7000,6388 7000,7313 6674,7778 6347,8133 7174,8133 7853,7347 7853,6388 7853,5430 7174,4644 6347,4644 L 6347,4644 Z M 7853,4644 L 7853,4644 Z M 6347,8134 L 6347,8134 Z"/></g><g style="stroke:rgb(0,0,0);stroke-width:203;stroke-linejoin:round;fill:none"><path style="fill:none" d="M 6347,4644 C 6674,4999 7000,5464 7000,6388 7000,7313 6674,7778 6347,8133 7174,8133 7853,7347 7853,6388 7853,5430 7174,4644 6347,4644 L 6347,4644"/></g><g style="stroke:none;fill:none"><rect x="6348" y="4645" width="1506" height="3490"/></g><g/></g></g></g></svg>