<?xml version="1.0" encoding="UTF-8"?>
<!DOCTYPE svg PUBLIC "-//W3C//DTD SVG 1.1//EN" "http://www.w3.org/Graphics/SVG/1.1/DTD/svg11.dtd"><svg version="1.1" viewBox="0 0 12700 12700" preserveAspectRatio="xMidYMid" fill-rule="evenodd" xmlns="http://www.w3.org/2000/svg" xmlns:xlink="http://www.w3.org/1999/xlink"><g visibility="visible" id="Default"><desc>Master slide</desc><g style="stroke:none;fill:none"><rect x="0" y="0" width="12700" height="12700"/></g></g><g visibility="visible" id="page1"><desc>Slide</desc><g><desc>Drawing</desc><g><g style="stroke:none;fill:rgb(102,102,102)"><path d="M 8003,9205 C 7934,9205 7865,9274 7865,9343 L 7865,11556 C 7865,11625 7934,11694 8003,11694 L 8556,11694 C 8625,11694 8694,11625 8694,11556 L 8694,9343 C 8694,9274 8625,9205 8556,9205 L 8003,9205 Z M 7865,9205 L 7865,9205 Z M 8695,11695 L 8695,11695 Z"/></g><g style="stroke:rgb(0,0,0);stroke-width:203;stroke-linejoin:round;fill:none"><path style="fill:none" d="M 8003,9205 C 7934,9205 7865,9274 7865,9343 L 7865,11556 C 7865,11625 7934,11694 8003,11694 L 8556,11694 C 8625,11694 8694,11625 8694,11556 L 8694,9343 C 8694,9274 8625,9205 8556,9205 L 8003,9205"/></g><g style="stroke:none;fill:none"><rect x="7866" y="9206" width="830" height="2490"/></g><g/></g></g><g><desc>Drawing</desc><g><g style="stroke:none;fill:rgb(102,102,102)"><path d="M 1364,9205 C 1295,9205 1226,9274 1226,9343 L 1226,11556 C 1226,11625 1295,11694 1364,11694 L 1917,11694 C 1986,11694 2055,11625 2055,11556 L 2055,9343 C 2055,9274 1986,9205 1917,9205 L 1364,9205 Z M 1226,9205 L 1226,9205 Z M 2056,11695 L 2056,11695 Z"/></g><g style="stroke:rgb(0,0,0);stroke-width:203;stroke-linejoin:round;fill:none"><path style="fill:none" d="M 1364,9205 C 1295,9205 1226,9274 1226,9343 L 1226,11556 C 1226,11625 1295,11694 1364,11694 L 1917,11694 C 1986,11694 2055,11625 2055,11556 L 2055,9343 C 2055,9274 1986,9205 1917,9205 L 1364,9205"/></g><g style="stroke:none;fill:none"><rect x="1227" y="9206" width="830" height="2490"/></g><g/></g></g><g><desc>Drawing</desc><g><g style="stroke:none;fill:rgb(153,204,255)"><path d="M 11252,329 L 9425,2156 8788,1519 8291,4482 11254,3985 10617,3348 12444,1521 11252,329 Z M 7058,3249 L 7058,3249 Z M 13083,2158 L 13083,2158 Z"/></g><g style="stroke:rgb(0,0,0);stroke-width:203;stroke-linejoin:round;fill:none"><path style="fill:none" d="M 11252,329 L 9425,2156 8788,1519 8291,4482 11254,3985 10617,3348 12444,1521 11252,329"/></g><g style="stroke:none;fill:none"><rect x="7058" y="3249" width="5032" height="3489"/></g><g/></g></g><g><desc>Drawing</desc><g><g style="stroke:none;fill:rgb(230,230,255)"><path d="M 8695,7545 L 1226,7545 2193,5055 7729,5055 8695,7545 Z M 8695,7545 L 8695,7545 Z M 1226,5055 L 1226,5055 Z"/></g><g style="stroke:rgb(0,0,0);stroke-width:203;stroke-linejoin:round;fill:none"><path style="fill:none" d="M 8695,7545 L 1226,7545 2193,5055 7729,5055 8695,7545"/></g><g style="stroke:none;fill:none"><rect x="8695" y="7545" width="7469" height="2490"/></g><g/></g></g><g><desc>Drawing</desc><g><g style="stroke:none;fill:rgb(0,0,0)"><path d="M 6903,6454 C 7373,6454 7732,6813 7732,7283 7732,7753 7373,8113 6903,8113 6433,8113 6074,7753 6074,7283 6074,6813 6433,6454 6903,6454 Z M 6902,6682 C 7242,6682 7502,6942 7502,7282 7502,7622 7242,7883 6902,7883 6562,7883 6302,7622 6302,7282 6302,6942 6562,6682 6902,6682 Z M 6074,6454 L 6074,6454 Z M 7734,8115 L 7734,8115 Z"/></g><g style="stroke:rgb(0,0,0);stroke-width:203;stroke-linejoin:round;fill:none"><path style="fill:none" d="M 6903,6454 C 7373,6454 7732,6813 7732,7283 7732,7753 7373,8113 6903,8113 6433,8113 6074,7753 6074,7283 6074,6813 6433,6454 6903,6454"/><path style="fill:none" d="M 6902,6682 C 7242,6682 7502,6942 7502,7282 7502,7622 7242,7883 6902,7883 6562,7883 6302,7622 6302,7282 6302,6942 6562,6682 6902,6682"/></g><g style="stroke:none;fill:none"><rect x="6075" y="6454" width="1660" height="1661"/></g><g/></g></g><g><desc>Drawing</desc><g><g style="stroke:none;fill:rgb(153,153,153)"><path d="M 9525,10036 L 396,10036 866,7544 9056,7544 9525,10036 Z M 9525,10036 L 9525,10036 Z M 396,7544 L 396,7544 Z"/></g><g style="stroke:rgb(0,0,0);stroke-width:203;stroke-linejoin:round;fill:none"><path style="fill:none" d="M 9525,10036 L 396,10036 866,7544 9056,7544 9525,10036"/></g><g style="stroke:none;fill:none"><rect x="9525" y="10036" width="9129" height="2492"/></g><g/></g></g><g><desc>Drawing</desc><g><g style="stroke:none;fill:rgb(76,76,76)"><path d="M 535,8945 C 466,8945 397,9014 397,9083 L 397,9635 C 397,9704 466,9774 535,9774 L 9387,9774 C 9456,9774 9526,9704 9526,9635 L 9526,9083 C 9526,9014 9456,8945 9387,8945 L 535,8945 Z M 397,8945 L 397,8945 Z M 9526,9774 L 9526,9774 Z"/></g><g style="stroke:rgb(0,0,0);stroke-width:203;stroke-linejoin:round;fill:none"><path style="fill:none" d="M 535,8945 C 466,8945 397,9014 397,9083 L 397,9635 C 397,9704 466,9774 535,9774 L 9387,9774 C 9456,9774 9526,9704 9526,9635 L 9526,9083 C 9526,9014 9456,8945 9387,8945 L 535,8945"/></g><g style="stroke:none;fill:none"><rect x="397" y="8945" width="9129" height="829"/></g><g/></g></g><g><desc>Drawing</desc><g><g style="stroke:none;fill:rgb(0,0,0)"><path d="M 5080,5714 L 4445,5714 4445,5079 5715,5079 5715,5714 5080,5714 Z"/></g><g style="stroke:rgb(0,0,0);fill:none"><path style="fill:none" d="M 5080,5714 L 4445,5714 4445,5079 5715,5079 5715,5714 5080,5714"/></g><g style="stroke:none;fill:none"><rect x="4445" y="5080" width="1271" height="636"/></g><g/></g></g><g><desc>Drawing</desc><g><g style="stroke:none;fill:rgb(230,230,255)"><path d="M 4997,9624 L 4044,9624 4044,8989 5949,8989 5949,9624 4997,9624 Z"/></g><g style="stroke:rgb(0,0,0);stroke-width:203;stroke-linejoin:round;fill:none"><path style="fill:none" d="M 4997,9624 L 4044,9624 4044,8989 5949,8989 5949,9624 4997,9624"/></g><g style="stroke:none;fill:none"><rect x="4045" y="8990" width="1906" height="636"/></g><g/></g></g></g></svg>