<?xml version="1.0" encoding="UTF-8"?>
<!DOCTYPE svg PUBLIC "-//W3C//DTD SVG 1.1//EN" "http://www.w3.org/Graphics/SVG/1.1/DTD/svg11.dtd"><svg version="1.1" viewBox="0 0 12700 12700" preserveAspectRatio="xMidYMid" fill-rule="evenodd" xmlns="http://www.w3.org/2000/svg" xmlns:xlink="http://www.w3.org/1999/xlink"><g visibility="visible" id="Default"><desc>Master slide</desc><g style="stroke:none;fill:none"><rect x="0" y="0" width="12700" height="12700"/></g></g><g visibility="visible" id="page1"><desc>Slide</desc><g><desc>Drawing</desc><g><g style="stroke:none;fill:rgb(153,204,255)"><path d="M 11252,329 L 9425,2156 8788,1519 8291,4482 11254,3985 10617,3348 12444,1521 11252,329 Z M 7058,3249 L 7058,3249 Z M 13083,2158 L 13083,2158 Z"/></g><g style="stroke:rgb(0,0,0);stroke-width:203;stroke-linejoin:round;fill:none"><path style="fill:none" d="M 11252,329 L 9425,2156 8788,1519 8291,4482 11254,3985 10617,3348 12444,1521 11252,329"/></g><g style="stroke:none;fill:none"><rect x="7058" y="3249" width="5032" height="3489"/></g><g/></g></g><g><desc>Drawing</desc><g><g style="stroke:none;fill:rgb(148,189,94)"><path d="M 1009,9084 L 3245,9084 2641,10990 405,10990 1009,9084 Z M 405,9084 L 405,9084 Z M 3246,10990 L 3246,10990 Z"/></g><g style="stroke:rgb(0,0,0);stroke-width:203;stroke-linejoin:round;fill:none"><path style="fill:none" d="M 1009,9084 L 3245,9084 2641,10990 405,10990 1009,9084"/></g><g style="stroke:none;fill:none"><rect x="405" y="9085" width="2841" height="1906"/></g><g/></g></g><g><desc>Drawing</desc><g><g style="stroke:none;fill:rgb(148,189,94)"><path d="M 1733,7179 L 4115,7179 3321,9085 939,9085 1733,7179 Z M 939,7179 L 939,7179 Z M 4115,9085 L 4115,9085 Z"/></g><g style="stroke:rgb(0,0,0);stroke-width:203;stroke-linejoin:round;fill:none"><path style="fill:none" d="M 1733,7179 L 4115,7179 3321,9085 939,9085 1733,7179"/></g><g style="stroke:none;fill:none"><rect x="940" y="7180" width="3176" height="1906"/></g><g/></g></g><g><desc>Drawing</desc><g><g style="stroke:none;fill:rgb(148,189,94)"><path d="M 2468,6014 L 4850,6014 4056,7180 1674,7180 2468,6014 Z M 1674,6014 L 1674,6014 Z M 4850,7180 L 4850,7180 Z"/></g><g style="stroke:rgb(0,0,0);stroke-width:203;stroke-linejoin:round;fill:none"><path style="fill:none" d="M 2468,6014 L 4850,6014 4056,7180 1674,7180 2468,6014"/></g><g style="stroke:none;fill:none"><rect x="1675" y="6015" width="3176" height="1166"/></g><g/></g></g><g><desc>Drawing</desc><g><g style="stroke:none;fill:rgb(148,189,94)"><path d="M 3150,9084 L 5785,9084 5073,10990 2439,10990 3150,9084 Z M 2439,9084 L 2439,9084 Z M 5785,10990 L 5785,10990 Z"/></g><g style="stroke:rgb(0,0,0);stroke-width:203;stroke-linejoin:round;fill:none"><path style="fill:none" d="M 3150,9084 L 5785,9084 5073,10990 2439,10990 3150,9084"/></g><g style="stroke:none;fill:none"><rect x="2440" y="9085" width="3346" height="1906"/></g><g/></g></g><g><desc>Drawing</desc><g><g style="stroke:none;fill:rgb(148,189,94)"><path d="M 3970,7179 L 6656,7179 5760,9085 3075,9085 3970,7179 Z M 3075,7179 L 3075,7179 Z M 6656,9085 L 6656,9085 Z"/></g><g style="stroke:rgb(0,0,0);stroke-width:203;stroke-linejoin:round;fill:none"><path style="fill:none" d="M 3970,7179 L 6656,7179 5760,9085 3075,9085 3970,7179"/></g><g style="stroke:none;fill:none"><rect x="3075" y="7180" width="3581" height="1906"/></g><g/></g></g><g><desc>Drawing</desc><g><g style="stroke:none;fill:rgb(148,189,94)"><path d="M 4722,6014 L 7521,6014 6808,7180 4010,7180 4722,6014 Z M 4010,6014 L 4010,6014 Z M 7521,7180 L 7521,7180 Z"/></g><g style="stroke:rgb(0,0,0);stroke-width:203;stroke-linejoin:round;fill:none"><path style="fill:none" d="M 4722,6014 L 7521,6014 6808,7180 4010,7180 4722,6014"/></g><g style="stroke:none;fill:none"><rect x="4010" y="6015" width="3511" height="1166"/></g><g/></g></g><g><desc>Drawing</desc><g><g style="stroke:none;fill:rgb(148,189,94)"><path d="M 5599,9089 L 8119,9089 7163,10995 4644,10995 5599,9089 Z M 4644,9089 L 4644,9089 Z M 8120,10995 L 8120,10995 Z"/></g><g style="stroke:rgb(0,0,0);stroke-width:203;stroke-linejoin:round;fill:none"><path style="fill:none" d="M 5599,9089 L 8119,9089 7163,10995 4644,10995 5599,9089"/></g><g style="stroke:none;fill:none"><rect x="4645" y="9090" width="3476" height="1906"/></g><g/></g></g><g><desc>Drawing</desc><g><g style="stroke:none;fill:rgb(148,189,94)"><path d="M 6457,7184 L 8989,7184 8145,9090 5614,9090 6457,7184 Z M 5614,7184 L 5614,7184 Z M 8990,9090 L 8990,9090 Z"/></g><g style="stroke:rgb(0,0,0);stroke-width:203;stroke-linejoin:round;fill:none"><path style="fill:none" d="M 6457,7184 L 8989,7184 8145,9090 5614,9090 6457,7184"/></g><g style="stroke:none;fill:none"><rect x="5615" y="7185" width="3376" height="1906"/></g><g/></g></g><g><desc>Drawing</desc><g><g style="stroke:none;fill:rgb(148,189,94)"><path d="M 7243,6015 L 9625,6015 8831,7285 6449,7285 7243,6015 Z M 6449,6015 L 6449,6015 Z M 9625,7286 L 9625,7286 Z"/></g><g style="stroke:rgb(0,0,0);stroke-width:203;stroke-linejoin:round;fill:none"><path style="fill:none" d="M 7243,6015 L 9625,6015 8831,7285 6449,7285 7243,6015"/></g><g style="stroke:none;fill:none"><rect x="6450" y="6015" width="3176" height="1271"/></g><g/></g></g><g><desc>Drawing</desc><g><g style="stroke:none;fill:rgb(148,189,94)"><path d="M 7925,9089 L 10560,9089 9848,10995 7214,10995 7925,9089 Z M 7214,9089 L 7214,9089 Z M 10560,10995 L 10560,10995 Z"/></g><g style="stroke:rgb(0,0,0);stroke-width:203;stroke-linejoin:round;fill:none"><path style="fill:none" d="M 7925,9089 L 10560,9089 9848,10995 7214,10995 7925,9089"/></g><g style="stroke:none;fill:none"><rect x="7215" y="9090" width="3346" height="1906"/></g><g/></g></g><g><desc>Drawing</desc><g><g style="stroke:none;fill:rgb(148,189,94)"><path d="M 8745,7284 L 11431,7284 10535,9190 7850,9190 8745,7284 Z M 7850,7284 L 7850,7284 Z M 11431,9190 L 11431,9190 Z"/></g><g style="stroke:rgb(0,0,0);stroke-width:203;stroke-linejoin:round;fill:none"><path style="fill:none" d="M 8745,7284 L 11431,7284 10535,9190 7850,9190 8745,7284"/></g><g style="stroke:none;fill:none"><rect x="7850" y="7285" width="3581" height="1906"/></g><g/></g></g><g><desc>Drawing</desc><g><g style="stroke:none;fill:rgb(148,189,94)"><path d="M 9459,6015 L 12095,6015 11424,7285 8789,7285 9459,6015 Z M 8789,6015 L 8789,6015 Z M 12095,7286 L 12095,7286 Z"/></g><g style="stroke:rgb(0,0,0);stroke-width:203;stroke-linejoin:round;fill:none"><path style="fill:none" d="M 9459,6015 L 12095,6015 11424,7285 8789,7285 9459,6015"/></g><g style="stroke:none;fill:none"><rect x="8790" y="6015" width="3306" height="1271"/></g><g/></g></g><g><desc>Drawing</desc><g><g style="stroke:rgb(255,255,255);stroke-opacity:0.501960784313726;fill:rgb(0,71,255);fill-opacity:0.501960784313726"><path d="M 3842,9649 C 3672,9951 3344,10175 2970,10178 2645,10181 2307,10315 2005,10209 1680,10095 1538,9593 1694,9276 1871,8916 2197,8664 2441,8342 2668,8042 2596,7724 2597,7408 2598,7026 2991,6873 3313,6910 3624,6946 3948,6905 4246,7003 4633,7130 4831,6675 5180,6692 5631,6714 5532,7454 5056,7377 4735,7325 4424,7516 4122,7626 3557,7832 4109,8228 4091,8560 L 4153,8871 4060,9182 3904,9276 3842,9649 Z"/></g><g style="stroke:none;fill:rgb(0,71,255)"/><g style="stroke:rgb(0,0,0);stroke-width:203;stroke-linejoin:round;fill:none"><path style="fill:none" d="M 3842,9649 C 3672,9951 3344,10175 2970,10178 2645,10181 2307,10315 2005,10209 1680,10095 1538,9593 1694,9276 1871,8916 2197,8664 2441,8342 2668,8042 2596,7724 2597,7408 2598,7026 2991,6873 3313,6910 3624,6946 3948,6905 4246,7003 4633,7130 4831,6675 5180,6692 5631,6714 5532,7454 5056,7377 4735,7325 4424,7516 4122,7626 3557,7832 4109,8228 4091,8560 L 4153,8871 4060,9182 3904,9276 3842,9649"/></g><g/></g></g><g><desc>Drawing</desc><g><g style="stroke:rgb(255,255,255);stroke-opacity:0.501960784313726;fill:rgb(153,102,51);fill-opacity:0.501960784313726"><path d="M 11211,6804 C 11031,7076 10771,7278 10506,7484 10254,7680 9994,7706 9725,7761 9478,7811 9226,7783 8969,7711 8721,7641 8379,7755 8213,7560 8002,7313 7770,7198 7507,7232 7246,7266 6992,7354 6751,7459 6513,7563 6247,7828 5995,7686 5730,7537 5901,7183 5869,6930 5846,6749 5728,6307 6146,6401 6417,6462 6688,6430 6902,6728 7065,6954 7422,6801 7684,6804 7944,6807 8211,6841 8465,6753 8731,6661 8927,6423 9221,6401 9471,6382 9724,6326 9977,6350 10243,6375 10516,6383 10758,6149 10988,5927 11353,6407 11161,6653 L 11111,6728 11211,6804 Z"/></g><g style="stroke:none;fill:rgb(153,102,51)"/><g style="stroke:rgb(0,0,0);stroke-width:203;stroke-linejoin:round;fill:none"><path style="fill:none" d="M 11211,6804 C 11031,7076 10771,7278 10506,7484 10254,7680 9994,7706 9725,7761 9478,7811 9226,7783 8969,7711 8721,7641 8379,7755 8213,7560 8002,7313 7770,7198 7507,7232 7246,7266 6992,7354 6751,7459 6513,7563 6247,7828 5995,7686 5730,7537 5901,7183 5869,6930 5846,6749 5728,6307 6146,6401 6417,6462 6688,6430 6902,6728 7065,6954 7422,6801 7684,6804 7944,6807 8211,6841 8465,6753 8731,6661 8927,6423 9221,6401 9471,6382 9724,6326 9977,6350 10243,6375 10516,6383 10758,6149 10988,5927 11353,6407 11161,6653 L 11111,6728 11211,6804"/></g><g/></g></g><g><desc>Drawing</desc><g><g style="stroke:rgb(255,255,255);stroke-opacity:0.501960784313726;fill:rgb(153,102,51);fill-opacity:0.501960784313726"><path d="M 9221,10609 C 9163,10287 8847,10120 8641,9903 8353,9599 8069,9955 7885,10105 7511,10410 7484,9857 7432,9676 7356,9413 7314,9137 7180,8895 7053,8666 6846,8354 6524,8442 6273,8511 6004,8364 5768,8618 5555,8847 5227,9012 5164,9349 5115,9611 5240,9853 5315,10105 5403,10402 4984,10591 4710,10533 4474,10483 4223,10599 4030,10256 3902,10028 3527,10194 3274,10256 3010,10321 2757,10377 2493,10432 2231,10487 2025,10774 1737,10710 1467,10650 1228,10505 981,10382 580,10182 556,10824 981,10684 1221,10605 1477,10820 1737,10785 1989,10751 2239,10829 2493,10810 2744,10791 2996,10814 3249,10785 3508,10755 3741,10593 4005,10634 4259,10673 4494,10806 4761,10810 5031,10814 5298,10784 5567,10760 5858,10734 6034,10497 6348,10458 6650,10420 6948,10502 7104,10710 7330,11011 7614,10918 7885,10911 8138,10904 8387,10823 8641,10836 L 8742,10836 9221,10609 Z"/></g><g style="stroke:none;fill:rgb(153,102,51)"/><g style="stroke:rgb(0,0,0);stroke-width:203;stroke-linejoin:round;fill:none"><path style="fill:none" d="M 9221,10609 C 9163,10287 8847,10120 8641,9903 8353,9599 8069,9955 7885,10105 7511,10410 7484,9857 7432,9676 7356,9413 7314,9137 7180,8895 7053,8666 6846,8354 6524,8442 6273,8511 6004,8364 5768,8618 5555,8847 5227,9012 5164,9349 5115,9611 5240,9853 5315,10105 5403,10402 4984,10591 4710,10533 4474,10483 4223,10599 4030,10256 3902,10028 3527,10194 3274,10256 3010,10321 2757,10377 2493,10432 2231,10487 2025,10774 1737,10710 1467,10650 1228,10505 981,10382 580,10182 556,10824 981,10684 1221,10605 1477,10820 1737,10785 1989,10751 2239,10829 2493,10810 2744,10791 2996,10814 3249,10785 3508,10755 3741,10593 4005,10634 4259,10673 4494,10806 4761,10810 5031,10814 5298,10784 5567,10760 5858,10734 6034,10497 6348,10458 6650,10420 6948,10502 7104,10710 7330,11011 7614,10918 7885,10911 8138,10904 8387,10823 8641,10836 L 8742,10836 9221,10609"/></g><g/></g></g></g></svg>