<?xml version="1.0" encoding="UTF-8"?>
<!DOCTYPE svg PUBLIC "-//W3C//DTD SVG 1.1//EN" "http://www.w3.org/Graphics/SVG/1.1/DTD/svg11.dtd"><svg version="1.1" viewBox="0 0 12700 12700" preserveAspectRatio="xMidYMid" fill-rule="evenodd" xmlns="http://www.w3.org/2000/svg" xmlns:xlink="http://www.w3.org/1999/xlink"><g visibility="visible" id="Default"><desc>Master slide</desc><g style="stroke:none;fill:none"><rect x="0" y="0" width="12700" height="12700"/></g></g><g visibility="visible" id="page1"><desc>Slide</desc><g><desc>Drawing</desc><g><g style="stroke:none;fill:rgb(102,102,102)"><path d="M 8003,9205 C 7934,9205 7865,9274 7865,9343 L 7865,11556 C 7865,11625 7934,11694 8003,11694 L 8556,11694 C 8625,11694 8694,11625 8694,11556 L 8694,9343 C 8694,9274 8625,9205 8556,9205 L 8003,9205 Z M 7865,9205 L 7865,9205 Z M 8695,11695 L 8695,11695 Z"/></g><g style="stroke:rgb(0,0,0);stroke-width:203;stroke-linejoin:round;fill:none"><path style="fill:none" d="M 8003,9205 C 7934,9205 7865,9274 7865,9343 L 7865,11556 C 7865,11625 7934,11694 8003,11694 L 8556,11694 C 8625,11694 8694,11625 8694,11556 L 8694,9343 C 8694,9274 8625,9205 8556,9205 L 8003,9205"/></g><g style="stroke:none;fill:none"><rect x="7866" y="9206" width="830" height="2490"/></g><g/></g></g><g><desc>Drawing</desc><g><g style="stroke:none;fill:rgb(102,102,102)"><path d="M 1364,9205 C 1295,9205 1226,9274 1226,9343 L 1226,11556 C 1226,11625 1295,11694 1364,11694 L 1917,11694 C 1986,11694 2055,11625 2055,11556 L 2055,9343 C 2055,9274 1986,9205 1917,9205 L 1364,9205 Z M 1226,9205 L 1226,9205 Z M 2056,11695 L 2056,11695 Z"/></g><g style="stroke:rgb(0,0,0);stroke-width:203;stroke-linejoin:round;fill:none"><path style="fill:none" d="M 1364,9205 C 1295,9205 1226,9274 1226,9343 L 1226,11556 C 1226,11625 1295,11694 1364,11694 L 1917,11694 C 1986,11694 2055,11625 2055,11556 L 2055,9343 C 2055,9274 1986,9205 1917,9205 L 1364,9205"/></g><g style="stroke:none;fill:none"><rect x="1227" y="9206" width="830" height="2490"/></g><g/></g></g><g><desc>Drawing</desc><g><g style="stroke:none;fill:rgb(230,230,255)"><path d="M 8695,7545 L 1226,7545 2193,5055 7729,5055 8695,7545 Z M 8695,7545 L 8695,7545 Z M 1226,5055 L 1226,5055 Z"/></g><g style="stroke:rgb(0,0,0);stroke-width:203;stroke-linejoin:round;fill:none"><path style="fill:none" d="M 8695,7545 L 1226,7545 2193,5055 7729,5055 8695,7545"/></g><g style="stroke:none;fill:none"><rect x="8695" y="7545" width="7469" height="2490"/></g><g/></g></g><g><desc>Drawing</desc><g><g style="stroke:none;fill:rgb(0,0,0)"><path d="M 6903,6454 C 7373,6454 7732,6813 7732,7283 7732,7753 7373,8113 6903,8113 6433,8113 6074,7753 6074,7283 6074,6813 6433,6454 6903,6454 Z M 6902,6682 C 7242,6682 7502,6942 7502,7282 7502,7622 7242,7883 6902,7883 6562,7883 6302,7622 6302,7282 6302,6942 6562,6682 6902,6682 Z M 6074,6454 L 6074,6454 Z M 7734,8115 L 7734,8115 Z"/></g><g style="stroke:rgb(0,0,0);stroke-width:203;stroke-linejoin:round;fill:none"><path style="fill:none" d="M 6903,6454 C 7373,6454 7732,6813 7732,7283 7732,7753 7373,8113 6903,8113 6433,8113 6074,7753 6074,7283 6074,6813 6433,6454 6903,6454"/><path style="fill:none" d="M 6902,6682 C 7242,6682 7502,6942 7502,7282 7502,7622 7242,7883 6902,7883 6562,7883 6302,7622 6302,7282 6302,6942 6562,6682 6902,6682"/></g><g style="stroke:none;fill:none"><rect x="6075" y="6454" width="1660" height="1661"/></g><g/></g></g><g><desc>Drawing</desc><g><g style="stroke:none;fill:rgb(153,153,153)"><path d="M 9525,10036 L 396,10036 866,7544 9056,7544 9525,10036 Z M 9525,10036 L 9525,10036 Z M 396,7544 L 396,7544 Z"/></g><g style="stroke:rgb(0,0,0);stroke-width:203;stroke-linejoin:round;fill:none"><path style="fill:none" d="M 9525,10036 L 396,10036 866,7544 9056,7544 9525,10036"/></g><g style="stroke:none;fill:none"><rect x="9525" y="10036" width="9129" height="2492"/></g><g/></g></g><g><desc>Drawing</desc><g><g style="stroke:none;fill:rgb(76,76,76)"><path d="M 535,8945 C 466,8945 397,9014 397,9083 L 397,9635 C 397,9704 466,9774 535,9774 L 9387,9774 C 9456,9774 9526,9704 9526,9635 L 9526,9083 C 9526,9014 9456,8945 9387,8945 L 535,8945 Z M 397,8945 L 397,8945 Z M 9526,9774 L 9526,9774 Z"/></g><g style="stroke:rgb(0,0,0);stroke-width:203;stroke-linejoin:round;fill:none"><path style="fill:none" d="M 535,8945 C 466,8945 397,9014 397,9083 L 397,9635 C 397,9704 466,9774 535,9774 L 9387,9774 C 9456,9774 9526,9704 9526,9635 L 9526,9083 C 9526,9014 9456,8945 9387,8945 L 535,8945"/></g><g style="stroke:none;fill:none"><rect x="397" y="8945" width="9129" height="829"/></g><g/></g></g><g><desc>Drawing</desc><g><g style="stroke:none;fill:rgb(0,0,0)"><path d="M 5080,5714 L 4445,5714 4445,5079 5715,5079 5715,5714 5080,5714 Z"/></g><g style="stroke:rgb(0,0,0);fill:none"><path style="fill:none" d="M 5080,5714 L 4445,5714 4445,5079 5715,5079 5715,5714 5080,5714"/></g><g style="stroke:none;fill:none"><rect x="4445" y="5080" width="1271" height="636"/></g><g/></g></g><g><desc>Drawing</desc><g><g style="stroke:none;fill:rgb(230,230,255)"><path d="M 4997,9624 L 4044,9624 4044,8989 5949,8989 5949,9624 4997,9624 Z"/></g><g style="stroke:rgb(0,0,0);stroke-width:203;stroke-linejoin:round;fill:none"><path style="fill:none" d="M 4997,9624 L 4044,9624 4044,8989 5949,8989 5949,9624 4997,9624"/></g><g style="stroke:none;fill:none"><rect x="4045" y="8990" width="1906" height="636"/></g><g/></g></g><g><desc>Drawing</desc><g><g style="stroke:none;fill:rgb(179,179,0)"><path d="M 10210,6349 L 8255,6349 8255,3074 12165,3074 12165,6349 10210,6349 Z"/></g><g style="stroke:rgb(0,0,0);stroke-width:203;stroke-linejoin:round;fill:none"><path style="fill:none" d="M 10210,6349 L 8255,6349 8255,3074 12165,3074 12165,6349 10210,6349"/></g><g style="stroke:none;fill:none"><rect x="8255" y="3075" width="3911" height="3276"/></g><g/></g></g><g><desc>Drawing</desc><g><g style="stroke:none;fill:rgb(179,179,0)"><path d="M 8989,3009 L 8989,2882 8985,2755 8975,2629 8961,2504 8942,2379 8918,2257 8889,2135 8856,2016 8818,1899 8776,1785 8730,1673 8679,1565 8624,1460 8565,1359 8502,1262 8436,1169 8366,1080 8293,996 8217,917 8138,843 8056,774 7971,710 7884,652 7795,600 7705,554 7612,513 7518,479 7423,451 7327,428 7230,413 7133,403 7035,400 6937,403 6840,413 6743,428 6647,451 6552,479 6458,513 6365,554 6275,600 6186,652 6099,710 6014,774 5932,843 5853,917 5777,996 5704,1080 5634,1169 5568,1262 5505,1359 5446,1460 5391,1565 5340,1673 5294,1785 5252,1899 5214,2016 5181,2135 5152,2257 5128,2379 5109,2504 5095,2629 5085,2755 5081,2882 5081,3009 5809,2983 5809,2904 5812,2824 5818,2745 5827,2666 5839,2588 5854,2511 5872,2435 5893,2360 5917,2287 5943,2215 5972,2146 6004,2078 6039,2012 6076,1948 6115,1887 6156,1829 6200,1773 6246,1721 6294,1671 6344,1625 6395,1581 6448,1542 6502,1505 6558,1472 6615,1443 6673,1418 6732,1396 6792,1379 6852,1365 6913,1355 6974,1349 7035,1347 7096,1349 7157,1355 7218,1365 7278,1379 7338,1396 7397,1418 7455,1443 7512,1472 7568,1505 7622,1542 7675,1581 7726,1625 7776,1671 7824,1721 7870,1773 7914,1829 7955,1887 7994,1948 8031,2012 8066,2078 8098,2146 8127,2215 8153,2287 8177,2360 8198,2435 8216,2511 8231,2588 8243,2666 8252,2745 8258,2824 8261,2904 8261,2983 8989,3009 Z M 5080,400 L 5080,400 Z M 8991,5481 L 8991,5481 Z"/></g><g style="stroke:rgb(0,0,0);stroke-width:203;stroke-linejoin:round;fill:none"><path style="fill:none" d="M 8989,3009 L 8989,2882 8985,2755 8975,2629 8961,2504 8942,2379 8918,2257 8889,2135 8856,2016 8818,1899 8776,1785 8730,1673 8679,1565 8624,1460 8565,1359 8502,1262 8436,1169 8366,1080 8293,996 8217,917 8138,843 8056,774 7971,710 7884,652 7795,600 7705,554 7612,513 7518,479 7423,451 7327,428 7230,413 7133,403 7035,400 6937,403 6840,413 6743,428 6647,451 6552,479 6458,513 6365,554 6275,600 6186,652 6099,710 6014,774 5932,843 5853,917 5777,996 5704,1080 5634,1169 5568,1262 5505,1359 5446,1460 5391,1565 5340,1673 5294,1785 5252,1899 5214,2016 5181,2135 5152,2257 5128,2379 5109,2504 5095,2629 5085,2755 5081,2882 5081,3009 5809,2983 5809,2904 5812,2824 5818,2745 5827,2666 5839,2588 5854,2511 5872,2435 5893,2360 5917,2287 5943,2215 5972,2146 6004,2078 6039,2012 6076,1948 6115,1887 6156,1829 6200,1773 6246,1721 6294,1671 6344,1625 6395,1581 6448,1542 6502,1505 6558,1472 6615,1443 6673,1418 6732,1396 6792,1379 6852,1365 6913,1355 6974,1349 7035,1347 7096,1349 7157,1355 7218,1365 7278,1379 7338,1396 7397,1418 7455,1443 7512,1472 7568,1505 7622,1542 7675,1581 7726,1625 7776,1671 7824,1721 7870,1773 7914,1829 7955,1887 7994,1948 8031,2012 8066,2078 8098,2146 8127,2215 8153,2287 8177,2360 8198,2435 8216,2511 8231,2588 8243,2666 8252,2745 8258,2824 8261,2904 8261,2983 8989,3009"/></g><g style="stroke:none;fill:none"><rect x="5080" y="400" width="3911" height="5081"/></g><g/></g></g></g></svg>